<svg xmlns="http://www.w3.org/2000/svg" width="498.78" height="375.21" viewBox="0 0 498.78 375.21"><defs><style>.cls-1{fill:#151011;}.cls-2{fill:#e3e4e4;}.cls-3{fill:#b6b7ba;}.cls-4{fill:#f7f6f6;}.cls-5{fill:#f4f4f4;}.cls-6{fill:#f8f8f8;}.cls-7{fill:#616466;}.cls-8{fill:#a7a9ab;}.cls-9{fill:#fdfdfd;}.cls-10{fill:#939598;}.cls-11{fill:#828588;}.cls-12{fill:#77787c;}.cls-13{fill:#262426;}.cls-14{fill:#474749;}.cls-15{fill:#c5c6c7;}.cls-16{fill:#d0d1d1;}.cls-17{fill:#f4ec1f;}</style></defs><title>Asset 2</title><g id="Layer_2" data-name="Layer 2"><g id="Layer_1-2" data-name="Layer 1"><g id="sU3W48.tif"><path class="cls-1" d="M125.18,275.46c-4.49-4-6.25-10.55-12.47-12.9-.45-.17-.62-1.43-.69-2.2-.69-8.21-4.38-15.61-6.36-23.47-.47-1.84-1.17-3.88-3.83-4.28.33,4.76,1.17,9.45-.36,14-.36,1.08-.43,2.46-1.88,2.65s-1.53-1.16-1.91-2c-1-2.28-2.37-3.42-4.28-1-1,1.26-1.42.92-2.09-.1-1.91-2.9-3.92-5.74-5.74-8.7-1.61-2.62-1.85-6.36-6.4-6.27-1.08,0-1.72-2.22-2-3.74-.9-4.4-1.88-8.78-2.83-13.17-.18-.81-.07-1.9-.56-2.4-5.25-5.43-3-11.39-1.44-17.36.33-1.24.66-2.66-.58-3.7-1.5-1.24-1.88,1.47-3.35.94-.18-7.34,2.46-14.44,1.91-21.82-.34-4.62,2.25-9.82-2.9-13.47-.67-.47.18-1.45.7-2.12a60.24,60.24,0,0,0,9.84-17.72c.56-1.68,2.68-3.54-.84-4.58-1.38-.41-.18-1.45.12-1.86,3.41-4.67,5.81-10.06,10-14.16,3.41-3.33,7.15-6,12.9-5.57-3.3-7.18-1.72-13.62-.42-20.52.74-3.91,2.52-7.08,3.61-10.64.93-3,.28-4.4-2.69-5.61a48.81,48.81,0,0,1-16.9-12A11.83,11.83,0,0,1,82.3,59l6-.64c-2.1-1.86-4.24-3.13-5.46-5-1.58-2.41-6-4.81-1.07-8.31,1.39-1-.26-2-.75-2.91-1.65-3-3.69-5.92-4.11-9.49-.24-2.1-1.61-4.14,1.57-5.83,1.68-.89.26-4,.31-6.12q0-7.12,0-14.24c.89-6.9,2.69-7.88,9-4.79,13.37,6.52,23.5,16.94,34,27.17a82.31,82.31,0,0,1,8.68,10.38,10.48,10.48,0,0,0,13.07,3.29c1.86-1,2.52.32,3.34,1,3.92,3,8.77,2.87,13.18,4.16a4.27,4.27,0,0,0,4.62-1.19c1.41-1.8-.8-2.82-1.24-4.37,3.86,0,7.32.68,9.6,4.21.39.6,1.52,1.69,1.95.93,2.53-4.55,4.95-.29,7.36,0,10.42,1,20.79,1.7,30.46-3.56,1.64-.89,2.46-1.82,5-.38,4,2.29,9,.09,11-3.34,3.78-6.54,10.1-10.25,14.78-15.64A96.27,96.27,0,0,1,271.28,2.13C277-.89,281.52-2,281.76,7.74c.07,3,0,6,.2,9,.26,4-1.29,7.82,1,12.29,1.81,3.56-.61,8.71-3.4,12.48-.78,1-1.63,2-2.91,3.62,6.19.29,4,3.24,2.45,5.94-1.69,2.88-4.57,4.64-7,6.84,1.46,1.75,4.54-.58,5,1.93.4,2.18-2,3.17-3.46,4.52-4.11,3.93-8.63,7.49-13.94,9.33-4.51,1.57-4.11,3.93-2.53,7.08,4.73,9.41,6.12,19.17,3.21,29.59,7.42-.12,11.86,4.56,15.88,9.81a55.14,55.14,0,0,1,4.39,6.65c1.1,2,3.33,3.36,1.09,6.65-1.34,2,.85,5.73,2.27,8.33,2.13,3.9,4.57,7.64,7.05,11.34,1.1,1.64,3,2.79-.08,4.49-1.72.94-1.51,3.23-1.59,5-.31,7-.08,14,1.8,20.82a23.43,23.43,0,0,1,.71,8.93c-1.72.63-1.69-2.8-3.44-1.52-1.22.9-1.09,2.59-.6,3.68,4.65,10.38-2.92,18.93-4.13,28.42-.25,2-1,3.86-1.39,5.81-.35,1.73-.51,3.2-3,2.55-2-.5-2.25,1.62-3,2.8-1.8,3-3.2,6.25-5.32,9-1.14,1.47-1.41,6.08-5.75,2.2-2-1.77-2.84,2.76-4.66,4.26-4.74-4.77-2.49-11.06-3.09-16.7l-1.24.1v55.24c12.41-13.39,27.47-19.09,45-17.51S332,280.9,340.59,296.55c15.72-23.39,37.82-29.52,64.09-24.17,3.22.66,3.27-.49,3.26-2.86-.05-10.33.11-20.67-.1-31-.07-3.44.84-4.6,4.41-4.5,8.66.25,17.34.3,26,0,4-.14,4.7,1.39,4.63,4.92-.2,10.16,0,20.33-.12,30.5-.05,3.58.82,4.14,4.33,3,20.65-6.58,43.24,3.86,49.26,25.68a64.54,64.54,0,0,1,2.34,17.17c0,17.83-.09,35.67.1,53.5,0,3.76-1,4.9-4.79,4.79-8.49-.26-17-.29-25.49,0-4.08.14-5-1.29-5-5.16.2-16.33.12-32.66.06-49a53.51,53.51,0,0,0-.69-9.45c-1.28-7-8.35-10-14.12-5.87-3.44,2.48-6.15,5.64-6.08,10.73.26,17.83,0,35.67.2,53.5.05,4.22-1.21,5.54-5.34,5.22-10.23-.78-20.56,1.17-30.77-1-1-.22-2.26.44-3.4.67-17.12,3.43-33.71,3.3-48.86-7-6-4.09-10.36-9.56-14.53-16.25-9.22,15.05-22.35,23.5-39.71,25-17,1.49-31.74-3.27-44.62-15.63,0,3.39-.15,6.78,0,10.16.18,3-.73,4.17-3.9,4.11-9.16-.17-18.33-.15-27.5,0-3.13,0-4.06-1.15-3.92-4.14.21-4.31.05-8.64.05-14-10.59,12.76-23.48,19.1-39.15,19.72S151.93,371,140,358c0,4.59-.22,7.66.06,10.69.33,3.6-.67,5-4.6,4.9-8.49-.29-17-.27-25.49,0-3.65.11-4.42-1.23-4.39-4.59.15-16.66.09-33.33,0-50,0-4.34-.43-8.64-2.45-12.61a7,7,0,0,0-11.54-1.69A15.5,15.5,0,0,0,87.36,316c.09,17.67,0,35.33.11,53,0,3.36-.71,4.68-4.36,4.56-8.49-.27-17-.23-25.49,0-3.48.09-4.55-1-4.51-4.49.17-18.16.09-36.33.07-54.5,0-2.81.06-5.58-1.58-8.18-3-4.69-8.19-5.34-11.95-1.2a15.35,15.35,0,0,0-4,10.92c.12,17.5-.08,35,.15,52.5.05,4.06-1.19,5.09-5.08,5-8.32-.28-16.67-.29-25,0-3.8.13-4.7-1-4.69-4.75.11-24.66,0-49.33-.15-74,0-6.32-.41-12.65-.82-19-.19-2.95.56-4.12,3.8-4,7.49.24,15.21-1,22.44.36,8.77,1.69,16.71-2,25.15-1.75A34.17,34.17,0,0,1,72.59,278c2.38,1.9,3.75,1.88,6.08.13,12.58-9.42,30.13-10.27,43.17-2.26a18,18,0,0,1,2.22,1.91c4.31,3.29,8,7,10.2,12.15.5,1.16,1.22,3.86,2.68,2.61,2.28-1.94,5.78-4.39,4.73-7.72-1.31-4.12-.78-8.66-3.07-12.49-2.43,3.46-2.58,7.29-1.46,11.8A55.2,55.2,0,0,1,125.18,275.46ZM93.32,227.82l0,0c2.43-.82,1.54-2.7,1.39-4.35l.08-1.69c0-2.14.13-4.28.12-6.42,0-1.09-.09-1.09-1.78-2.12-1.75,0-3,1.88-4.93,1.24l1.24-5.69c1.39-2.24,2.85-4.46,2.12-7.31-.61-1.25-1.23-.84-1.86,0-1.25-.41-2.1,2.11-3.25.68s1.37-1.9,1.22-3.21c.58-.8,1.16-1.61,1.75-2.4,2-2.67,2-6,1.45-8.78-.5-2.51-3.38,1.08-5-.43a3.81,3.81,0,0,1-.52-.8l3.84-4.76c3-2.42,4.29-6.08,6.62-9s2.87-6.29,3-9.84l.17-.32c2.68.2,2,2.22,2.11,3.85l-.29,3.06c-1.78.63-2.06,1.65-.83,3.09l.45,2.2.84,5.84a53.68,53.68,0,0,0,1.71,16.07c.47,2-.41,4.19,1.21,5.92a73.5,73.5,0,0,0,2.79,13.06c-.35,3.55.38,6.54,4.14,8,.09,2.39,1.47,4.24,2.63,6.17.1,2.24,1.9,3.45,3.05,5.06,1.19,7.35,7.15,10.76,12.26,14.88,2.3,4.17,6.46,6.1,10.32,8.29,3.26,1.85,6.76-.91,10.15,0,.33-2.89,2.27-5,3.68-7.34l10,0c1.92,2.89,3.76,5.6,8,5.29,1.59-.12,3.3,1.27,5,2,.39,2.64,3.34,3.15,4.22,6.51,1.32-4,3.84-5.62,5.85-7.66a6.92,6.92,0,0,1,3.73-1.1c3.49.14,5.49-1.66,6.27-5h10c1,1.26,2.37,2.38,3,3.81,1.85,4.39,5.86,4.33,9.2,3.84s1.33-4.11,1.87-6.29a9,9,0,0,0-.09-2.47q.24-7.31.47-14.62c6.3-.05,12.6-.31,18.89-.09,4,.14,6.39-1.09,6.83-5.24,1.45-1.77,3-3.49,2.89-6a10,10,0,0,0,4.59-7.72l1.21-11.26c2.58-4.69,2.48-10,3.28-15.05l.85-4c.95-.57.91-1.38.53-2.26l.26-8.55c.94-10.55-.1-12.78-7.16-15.21-.58-2.49.65-4.43,2.78-4.89,2.36-.51,3.22,1.95,3.75,3.71.74,2.49,2.16,4.57,3.33,6.8a9.51,9.51,0,0,0,3.12,9.42c1.36,1.67,1.31,4.43,3.95,5.11,1.36,2.05,2.13,4.53,4.32,6l.29,2.18-3-.44c-2.69-.12-3.44.62-2.57,3.29a38.79,38.79,0,0,0,5,10.8l-1.38.85-1.78-1c-.84-1.15-1.61-1.57-2.12.24l.12,2.9c.51,3.36,2,6.35,3.48,9.36-2.13,1.82-3.79-.47-5.92-1v6.65c-1.19,3.43-.14,6.55,1,10.15,1.81-2.14,2.09-6.11,5.94-3.32,1,.73,1.88-.24,1.85-1.43,0-1.81-.25-3.61-.39-5.41l.6-5a1.77,1.77,0,0,0,.77-2.06l1.83-6.64c1-1.43.55-4.83,3.29-4,6.63,2,2.86-2.61,2.62-4.23-.3-2-1.65-3.84-1.46-6l-.39-7.18,1.4-.76c.49,1.32,1.11.6,1.63.07.92-.94-.19-1.26-.61-1.79a50.73,50.73,0,0,1-.51-15.84c.7-6.41.08-12.88-3-18.42-3.81-6.85-6.34-14.16-9.32-21.31a12.52,12.52,0,0,0-13.46-8c-4.17.48-8,2.24-11.94,3.43-15.6,4.68-31.25,8-47,.72-2.32-1.08-2.41.29-3,1.67-3.85,9.21-9.44,17.37-15.7,26C175,142,169.7,134.17,165.06,126c-1.74-3.05-2.85-4.31-6.25-2.41-4.75,2.65-10.07,2.86-15.43,3-6.37.19-12.58-1.19-18.89-1.42-.39-1.35-1.36-1.52-2.54-1.23l-3.63-.6a10,10,0,0,0-5.21-1.79,40.91,40.91,0,0,0-10.88-3.16c-5-.61-9.24,1.07-12,5.31a26.14,26.14,0,0,0-4.45,11.37c-5.3,6.62-8,14.32-9.32,22.57a39.19,39.19,0,0,0,.11,11.84l.06,5.18c-.57,2.4-.14,5-1.31,7.28-.42.86-1.18,1.82.63,2,.94.39,2.25-.65,2.93.74a2,2,0,0,0-.36,2.16c-1.35,1-1.18,2.4-1,3.8L77,195.57l-2.33,7.64c7-3.21,7.36,1.59,8.54,5.38l2.14,7,.08,9.88c-.28.64-.43,1.5.22,1.74.94.36,1.45-.46,1.75-1.28,2.49-1.61,3.61-.18,4.4,2l.7,2.7C93.73,230,93.27,228.81,93.32,227.82Zm50.88,39.72c-.37,2.36-.14,4.11,3,4.08,3.41,0,3-2,2.52-4.21.17-2.37-.36-4.72-3.07-4.71C143.51,262.72,144,265.39,144.21,267.54Zm38.83-137,.42-2.17c2.13-1.38,2.56-3.5,2.53-5.83a28.72,28.72,0,0,0,1.44-14.21c-.63-5.22-3.71-8-8.52-7.87-4.14.1-7.51,3.41-7.85,8.13s-.41,9.65,1.69,14.19c.23,1.54.36,3.14,2,4l2.14,4c.45,2.27,2.57,3.27,3.83,5.29C181.66,134.13,182.9,132.6,183,130.56Zm176.73,192v-1c.94-12.51,5.74-22.5,18.22-27.23a32.58,32.58,0,0,1,24.32.38c4,1.64,5.5.7,6-3.24a9.33,9.33,0,0,1,.83-2.85c1.72-3.57,0-5-3.26-5.95a66.11,66.11,0,0,0-21.22-2.17c-21.7.84-40.4,17.57-40.25,40.94a1.6,1.6,0,0,0-.06,2.13,4.81,4.81,0,0,0,.45,5,15.47,15.47,0,0,0,1.19,8.05,5.36,5.36,0,0,0,1.11,4c0,1.5.1,2.92,1.69,3.68a1.23,1.23,0,0,0,1,1.49,11,11,0,0,0,3.85,6.12c2.18,3.81,6.15,5.53,9.43,8,3,1,5.54,3.1,8.81,3.34,9.73,3.71,19.51,3,29.3.3,2.16,0,4-1,5.91-1.81,1.54-.63,2.48-1.54,1-3.17.08-1.48.16-3,.23-4.44.16-3.69-1-5-4.9-3.47a49.64,49.64,0,0,1-12.89,3c-6.24.61-11.42-2.87-17.29-3.2-1.84-2.82-4.79-4.51-7.08-6.87a4.11,4.11,0,0,0-2.36-3.13l-2.53-5.91-1.29-6-.16-5ZM155.42,266.45c-.39,1.83-.15,3.78,2.11,3.25,1.63-.38,4.87,2.14,4.95-2.07l-.12-4c.87-1.65,1.22-3.19-.93-4.17.07-2.33-1-3.4-3.34-2.94-2.9.58-3.5,2.6-3,5.2q0,.41,0,.82Zm4.83-155.12-3.75-4.05c-1.23-3.72-4.14-2.08-6.16-1.49-2.31.67-.86,2.75-.51,4.22.62,2.57,1.28,5.14,2.08,7.66,1.55,4.84,2.63,5,6.41,1C162.45,117.12,163.42,114.77,160.25,111.33Zm90-20.47c3.66,0,5-1.11,2.45-4.5-.78-1-1.21-2.32-2.55-2.81l-1.52-1c-.28-3-2.19-3.86-4.77-3.29-4.31,1-11.14,7.06-10.93,9.53,1.32,6.33,1.32,6.33,8.14,4.52,2,.44,3.45-.85,5.06-1.63A6.25,6.25,0,0,0,250.24,90.86ZM198,261.54l-.49,1.92c.11,2.37-2.42,5.53,2.73,6.13,5.9.68,3.93-3.27,4.22-6,1.12-3.12,1.31-6.2-2.65-7.06-2.8-.61-4.24,1.23-3.85,4.18A.55.55,0,0,0,198,261.54Zm234.91,60.39c1.52-3.52,1-7.12.39-10.71,2.42-11.55,12.12-19.38,22.88-18.46,10.1.85,16.68,9.08,17.07,21.38.1,3.14.18,6.28.26,9.43q0,3,0,6l0,4,0,6,0,4q0,4,0,8l-.05,4c-.62,8.07-.62,8.07,7.13,8.07h1c7.79,0,7.79,0,7.11-8.07l-.06-4,0-8,0-4,0-6,0-4q0-3,0-6c.09-4.31.45-8.64.21-12.94-1-18.14-12.13-29.78-28.48-30.25-10.93-.31-19.44,4.22-26.26,12.44-.12-14.53-.2-29.06-.39-43.59,0-1.66.94-3.69-1.13-4.93-3.07-1.16-6.27-.14-9.36-.57-4.37-.6-6,.72-5.86,5.54.38,12.63.08,25.28.14,37.93.05,11.13.23,22.26.36,33.39a3.5,3.5,0,0,0,0,3,8.3,8.3,0,0,0,0,5,8.58,8.58,0,0,0,0,5.06,11.41,11.41,0,0,0,0,5.94,11.13,11.13,0,0,0,0,6,10.54,10.54,0,0,0,0,6,10.27,10.27,0,0,0,0,6c-1.38,4.45,0,6.65,4.9,6.11,1.63-.18,3.29,0,4.94,0,5.47,0,5.73-.39,4.76-6.12l-.06-5.84a14.58,14.58,0,0,0,0-6,13.06,13.06,0,0,0,0-6,12.33,12.33,0,0,0,.05-6,7.73,7.73,0,0,0,0-4.93,7.76,7.76,0,0,0,0-5.05ZM200.2,110.87c-4.43,4.16-4.33,4.51,2.45,9.06,3,2.46,4.54,1.81,5.24-2,.49-2.72,1.72-5.3,2.2-8,.39-2.17.76-4.88-3-4.42C202.5,104.4,202.63,109.25,200.2,110.87ZM186.43,282.66H184l-1.87-2.33c-1.85-2.62-3.55-2.92-5,.33-1.4,4.76-5.25,7.31-9,10l-2.33,0c-.72-2.61.57-5.59-1.49-7.95-1.79,0-2.28.92-2,2.52l-2.85,9.51c-2.52-1.88-2.89-4.64-4.26-6.79-14,14.49-17.5,22.17-16.35,35.67-.79,2-.1,4,.27,6l.16,3c.32,3.33,1,6.55,3.07,9.3a8.56,8.56,0,0,0,2.74,5.68c.14,1.79,1.3,2.78,2.77,3.52,1.31,3.85,5.06,5.26,7.76,7.72,3.81,3.43,8.69,4.26,13.39,5.55,7.69,1.73,15.33,2.6,22.67-1.4,3.22.12,5.8-1.55,8.44-3a21.33,21.33,0,0,0,8.07-6.25c1.65-2,4.37-3.14,4.95-6a10.59,10.59,0,0,0,2.43-4.82c2.06-1.92,2.57-4.45,2.76-7.1,1.18-2.21,1.09-4.66,1.26-7.05l.22-2.68c.93-9.08-.21-17.72-4.76-25.84-2-3.57-5-6.07-7.53-9-2.72-3.09-3-4.08-4.52.18-.39,1.09-.8,2.45-2.26,2.15-1.24-.25-1.43-1.56-1.83-2.68-.89-2.54-1-5.47-3.34-7.47-2.45,2.6-.34,5.93-1.8,8.95-1.58-1.1-3.06-1.75-3.81-3.34.16-2.2-1.27-2.4-2.92-2.34l-1-1,.28-2.92c2.4-1,2.76,2.55,5,2.37.27-1.84.61-3.56.74-5.3.1-1.35,1.26-3.09-.59-3.94a4.54,4.54,0,0,0-4.26.13c-1.36.87-.84,2.38-.38,3.58A3.05,3.05,0,0,1,186.43,282.66ZM124.31,109.27c6.95-4,7.19-4.54,3.7-8.7.4-2.6-1-3.18-3.2-2.84-5.69.9-11.4,1.65-17,2.75-3.53.68-4.25,2.41-.94,4.7,1.24,6.1,6.52,11,11.15,10.34l4.42-3.78C123.35,111.15,124.35,110.61,124.31,109.27Zm-12.91-27c-3.12,1.47-5,4.12-4.85,7.36.1,1.7,2.84,1.63,4.6,1.8l6.65,1.65c7.93,1.69,7.93,1.69,10.2-4.55a2.14,2.14,0,0,0-.64-2.67c-3.31-2.16-6.6-4.36-10-6.29-3-1.69-5-.66-5.62,2.8Zm123.88,33.24c-.41-2.08-4.22-2.81-2.33-5.82l2.21-.13L240,113.7c1.23,3.25,3.35,3.07,5.82,1.49a20.37,20.37,0,0,0,8.44-10.39c1.74-2.52,1-3.86-2-4.32-5.22-.8-10.43-1.73-15.66-2.5-1.5-.22-3.4-1-4.13,1.36-3.06,3-5.22,5.91.25,8.7.32.16.21,1.15.31,1.75-2.38,2.31-2.77-.7-3.86-1.54-1.27-1-1.61-3.35-4-2.48a29.81,29.81,0,0,0-4.25,1.09c-2.47,1-6-1.44-7.33,1-1.23,2.2-.55,5.46-.71,8.25a2.89,2.89,0,0,0,.05.49c-.38,2.16-2.77,5.46,1,5.94,6.53.83,13.3,1.15,19.36-2.6a2.23,2.23,0,0,0,3.22-.15C240.25,117.1,237.35,116.44,235.28,115.52ZM129.8,323.58l0-2a57.33,57.33,0,0,0-1.83-22.72c-2.77-10.11-12.51-17.54-23-18.44-13.35-1.14-22.87,4.93-30.31,15.48-5.15-10-12.65-15.62-24.13-15.6-11,0-19.22,4.74-25.61,13.78-1.67-3.43-.88-6.49-1.44-9.37-.29-1.51-.16-3-2.42-2.9-2.83.13-5.66.09-8.49,0-2.09-.06-2.61,1.14-2.43,2.85,1.31,12.28.19,24.62,1,36.9v9l0,3,0,6,0,4,0,8,0,5c-.41,7.07-.41,7.07,9,7,6.09,0,6.09,0,5.62-7.07l0-5,0-8,0-4,0-6,0-3v-9c.2-8.14-.07-16.42,6.48-22.73,4.78-4.6,10.41-7.52,17.11-5.88,5.94,1.46,9.82,5.42,12,11.48,2,5.66,1.3,11.45,2.12,17.14l0,2a9.86,9.86,0,0,0,0,5,9.87,9.87,0,0,0,0,5,13.94,13.94,0,0,0,0,6l0,4a24.74,24.74,0,0,0,0,8,20.27,20.27,0,0,0-.05,7c-1.1,3.92.29,5.62,4.42,5.21,2.14-.21,4.31,0,6.46,0,3.74,0,4.62-1.85,3.22-5.11l-.07-6.9c.06-.54.12-1.08.18-1.62a2.26,2.26,0,0,0,1.18-2c-.07-12.59.7-25.18-.12-37.76,2.31-14.43,16.22-22.07,27.42-15.06,6.33,4,8,10.23,8.43,17.11q0,15.8-.08,31.6a2,2,0,0,0,1.14,2l.24,0a13.86,13.86,0,0,0,0,5.8l-.16,4.84c-1.28,6.43-.76,7.14,5.28,7.17h2.49c7.09,0,7.09,0,6.46-7.16l-.09-5a14.08,14.08,0,0,0,0-6,13.76,13.76,0,0,0,0-6,13.94,13.94,0,0,0,0-6,9.87,9.87,0,0,0,0-5A9.86,9.86,0,0,0,129.8,323.58ZM330.36,345.7c1-1.21,2.16-2.29,2.07-4a11.35,11.35,0,0,0,2.51-7.08c-.25-2.1,1.63-3.85,1-6l.11-4,.07-3c.52-11.52-3-21.57-11-29.91-9.14-9.45-20.57-11.94-33.23-11.18a39,39,0,0,0-36.71,41.09v2a10.14,10.14,0,0,0,.06,5c-.46,2.45.36,4.71,1.07,7,.08,4.67,2.71,8.26,5,12,1.32,3.32,3.77,5.68,6.58,7.73,1.81,1.89,3.64,3.76,6.14,4.74,4.15,2.16,8.23,4.53,13.1,4.65a29.39,29.39,0,0,0,15.11.08c5.22-.07,9.59-2.59,14-4.86a29.33,29.33,0,0,0,11.88-10.32A5.18,5.18,0,0,0,330.36,345.7Zm-100-7.12q0,2.5,0,5v7l0,5c.19,2.64-1.67,6.72,1.14,7.56a22.43,22.43,0,0,0,12.59,0c2.78-.89,1.13-5.25,1.47-8.06,0-.14-.11-.3-.17-.46a5.11,5.11,0,0,0-.11-4.09,12.45,12.45,0,0,0,0-6.91,7.46,7.46,0,0,0,0-5,7.79,7.79,0,0,0,0-4.91,10.35,10.35,0,0,0,0-6.1,7.8,7.8,0,0,0,0-5,5.37,5.37,0,0,0,0-4c.13-1.81.37-3.62.37-5.43,0-18.29.08-36.58,0-54.87,0-4.44,2-10.7-.92-12.83s-8.93-.54-13.57-.57c-.68-.17-.93.08-.76.76q0,36.49,0,73v4l-.09,5v6ZM126.95,120.24c5.11,2.94,10.77,2.51,16.35,2.72,4.1.16,6-1.19,4.47-5.46l-.06-1.8c.26-1.39.61-2.79-.9-3.75.09-3.2-.1-5.77-4.69-4.89-2.09.4-4.46-.63-6.71-1-2.54-1.7-3.62.74-4.76,2-2.31,2.52-4.26,5.38-6.36,8.09-.8,1-1.79,2-.85,3.47S125.69,120.5,126.95,120.24ZM217.2,80.45l-3-1.36c3.88-3.49,8.58-4.78,13.5-5.84-1.17-1.61-3.46-1.2-4-3.29,6.77-3.07,13.82-2.46,21.28-1.36l-3.37-5a27.43,27.43,0,0,1,15.6.43c-.74-3.33-2.78-4.66-5.74-6.52,1.84,0,2.58,0,3.32,0a18.06,18.06,0,0,0,8.8-1.26c1-.43,2.18-1.51,2.26-2.39.16-1.64-1.74-1-2.61-1.51-1.65-1-4.31-.4-5.51-3.2,4.2-.68,8.15-1,11.93-3.36-3.65-1.64-7.71-1.23-9.93-4.9,8.11-1.4,8.16-1.42,10.91-3.91-1.53-.83-4.2-.45-4.39-2.58s2.47-1.66,3.8-2.42c2.72-1.56,5.52-3,7.3-6.1a26,26,0,0,1-3.11-.62c-1.42-.47-3-1-3.18-2.78-.23-2,1.61-1.78,2.69-2.3,1.55-.75,3.24-1.6,3.37-3.38.19-2.65-3.5,0-3.82-2.93,3.49-2.41,4.24-6.35,4.64-11.07A52.86,52.86,0,0,0,272.5,5c-13.36,7.26-23.22,18.28-32.16,30.24-4.94,6.61-7.21,14.82-12.53,21.23A4.12,4.12,0,0,0,224,54.55q-46.21.18-92.42.25c-1.89-.47-2.49-2.21-3.09-3.64-5.24-12.45-13.28-22.85-22.78-32.32A72.68,72.68,0,0,0,85.82,4.22c-1.07-.51-2.28-1.39-3.24-.71-1.36,1-.13,2.42,0,3.66C82.8,10.3,86,12,86.72,15.11l-4.34.8c.65,2.15,2.2,3.13,3.68,4.21,1.06.77,3.45.27,3,2.41-.35,1.72-2.12,2.41-3.77,2.9-.83.25-2-.33-2.55.88A20.45,20.45,0,0,0,92,32.76c.73.27,1.73.78,1.89,1.38.34,1.29-1.2,1.27-1.86,1.9s-2,.22-2.2,1.58c3,3,7.21,2.28,11.21,3.28-3.09,3.22-6.94,3.34-10.52,5,3.84,2.4,7.82,2.51,12.74,3.45-3.34,2.62-6.58,2.69-9.55,4,3.62,5.24,9.07,3.87,14.48,4.35-2.62,2-4.86,3.28-6.27,6.62,5.83-1.87,11-2.23,16.37-.71-.39,1.8-2.28,2.84-2.06,4.86,5-.81,9.8-1.3,14.57-.07,1.2.31,2.9-.28,3.42,1.38.59,1.9-1.14,2.5-2.28,3.42,4.86,1.28,10,1.87,13.64,6-1.11,1-3,.61-3.86,2.43l10.43,2.54c-.46,2-3.35,2-2.52,4.23,4.06.17,8.2-.26,12,1.65-.31,1.47-2.6,1.09-2.45,3.24,3.71-.06,6.8,3,9.8,3.35,7.17.82,14.56.14,21.83.16,2.63,0,6.64-3.19,10.53-3.75-.47-2-3-1.25-3-2.88,3.94-2.32,8.34-1.4,12.46-1.85-.27-2.26-3.17-2-2.6-4.38L217,82c.89.41,1.76.3,1.8-.77C218.78,80.64,217.92,80.37,217.2,80.45ZM407.93,323.59c0-4.33,0-8.67,0-13a3.46,3.46,0,0,0-1.84-3.56,30.79,30.79,0,0,0-20.47-4.65c-6.91.8-11.63,4.38-14.22,10.78-3.89,9.61-2.52,25.16,10.29,29.43,6.95,2.32,13.64,1,20.4-1.55,4.31-1.63,6.65-3.53,5.91-8.47C407.57,329.64,407.93,326.59,407.93,323.59ZM210.26,100.22a30.5,30.5,0,0,0,3.7,2.33c3.71,1.68,7.16.89,10.16-1.66,2.82-2.4,4.31-5.46,3.54-9.27a3.82,3.82,0,0,0-4.83-3.19c-2.82.54-.57,2.3-.38,3.45a6.51,6.51,0,0,1-.83,3.79C219.36,101,214.72,99.6,210.26,100.22ZM149,99.39c-9.11.89-9.36.72-10.74-9.35-.14-1.05-.42-1.51-1.34-1.53-1.33,0-2.67,0-3.56,1.29-1.95,2.8-.15,9.36,3.17,11.52C141.75,104.75,146.11,104.07,149,99.39ZM159.41,285a62.66,62.66,0,0,0,2.49-5.81c.5-1.58,2.11-3.41-.09-4.9-1.7-1.16-3.69-.65-5.28.11-2.55,1.21-.53,3.3-.15,4.69C156.91,281.07,157.27,283.34,159.41,285Zm41-11.42c-1.44.58-3.85.16-3.25,2.72.74,3.15,1.44,6.47,4.35,8.58,1-2.91,2.33-5.76,2.8-8.74C204.74,273.38,201.83,274.43,200.4,273.61ZM169,286.56c1.65-2.63,2.63-4.29,3.71-5.9,1-1.43,1.84-3.09.53-4.46s-3.53-1-5.1-.35c-1.78.78-.71,2.53-.44,3.91C168.08,281.63,168.43,283.5,169,286.56Zm41.14-19.74c.13,2.39-.56,4.78,2.69,4.64,3.09-.13,3-2.54,3.28-4.62s-.24-4.36-2.83-4.24S209.93,264.88,210.15,266.82Zm-43.32-1.12c1.21,1.18-1.23,4.83,3,4.66,2.14-.09,3.13-1.2,2.86-3.13-.3-2.14.24-5.1-2.95-5.52C167.32,261.38,166.85,263.32,166.84,265.7Zm26.32.13c-.24-1.08.68-3.12-1.55-2.8s-4.85.38-4.52,4c.19,2,.14,3.51,2.89,3.45C193.43,270.36,192.84,267.91,193.15,265.83ZM235.13,76c-.18-1.87-1.75-1.72-2.8-1a78.05,78.05,0,0,0-6.81,5.82,2.31,2.31,0,0,0-.48,1.81c.18,1.06,1.22.95,2,1C228.57,83.72,235,77.73,235.13,76ZM149.19,286.34c-.6-2.73.08-5,.87-7.34.46-1.36.34-2.8-1.68-2.52-1.38.19-4-1-3.73,1.6C144.95,281.1,144.72,284.83,149.19,286.34ZM126.5,74.65c-1.45.22-1.86,1.36-1.29,2.13,1.94,2.62,3.9,5.34,7,6.74a3.48,3.48,0,0,0,2.35-.33,1.09,1.09,0,0,0,.31-1.7C132.65,78.52,129.08,77.2,126.5,74.65ZM211.42,286c3.26-1.23,3.16-4,3.76-6.22.27-1,.81-2.52-.53-3.07a5.25,5.25,0,0,0-4.74.15c-1.28.82-.09,2.07.23,3.05A17.57,17.57,0,0,1,211.42,286Zm-83.81-22.09c-1,2.51,1.12,4,1.81,5.92.31.86.74,2.07,2,1.9,1.71-.23,1.66-1.84,2-3.06s.82-2.73-.8-2.78C130.66,265.81,129.56,264.05,127.61,263.88Zm30.73-162.3c-1.21.16-2.4.35-1.78,1.41,1.39,2.35,3.8,3.63,6.21,4.67.83.36,1.66-.88,1.32-1.59C162.87,103.56,160.32,102.68,158.34,101.58Zm43.29.07c-2,1.13-4.8,1.83-5.65,4.68-.21.71.73,1.78,1.6,1.24,2-1.28,4.71-1.89,5.62-4.53C203.55,102,203,101.52,201.63,101.65Zm-58.84-8.38a2.8,2.8,0,0,0,2.15-2.45c.19-1.37-1-2.08-2.19-2.16a2,2,0,0,0-2.4,1.9C140.36,92,141.48,92.8,142.78,93.27Zm74.49-.1c1.36-.1,1.82-1.18,2-2.28.22-1.39-.66-2.14-2-2.13-1,0-2,.34-2.21,1.5C214.84,91.83,216,92.55,217.27,93.17Z"/><path class="cls-2" d="M125.18,275.46a55.2,55.2,0,0,0,12,8.64c-1.12-4.51-1-8.33,1.46-11.8,2.29,3.84,1.76,8.37,3.07,12.49,1.06,3.33-2.45,5.78-4.73,7.72-1.46,1.25-2.18-1.45-2.68-2.61-2.19-5.1-5.89-8.86-10.2-12.15Z"/><path class="cls-3" d="M78.77,6.48q0,7.12,0,14.24C76.55,17.46,76.55,9.73,78.77,6.48Z"/><path class="cls-4" d="M273.92,185.71c-2.19-1.45-3-3.94-4.32-6,3.58-2.21,3.34-3.52-1.15-6.28-2-2.7-3-6.16-5.92-8.25-1.17-2.23-2.59-4.31-3.33-6.8-.52-1.76-1.39-4.22-3.75-3.71-2.13.46-3.36,2.4-2.78,4.89l-.08,3.27c-.54,1.3-.49,2.37,1.13,2.8l.76,8.84-.73,6.07c-5.21,3.41-6.39,3.13-8.66-2,1.29-1.88,5.31-2,3.69-5.82-3.54,1.23-6.71,3.6-10.7,2.92,2-1.84,4.47-3.13,6.08-6-4.91-.31-8.55,3.4-13.06,2.94-.25,0-.77.62-.8,1-.09,1,.7,1.46,1.47,1.75,2.09.81,4.27.25,6.41.24.53,3.78,3.6,2.74,5.92,3.13l-1,2.7-3,1.26-1,0c-1.36,0-2.81-.22-3.1,1.7l-2,.28a2.41,2.41,0,0,0-.8-.32c-.28-1.52-1.43-1.68-2.67-1.7a7.59,7.59,0,0,0-1.08-.39c-.3.57.08.8.58.92q-.48.06-.39.52c-1.49-1.4-3.08.15-4.6-.16-1.29-1.26-1.79-.53-2.06.81l-3.88.15-.07-3.89c2.38-1.39,4.91-2.62,5.87-6-6.13,2.13-12.31.9-18.83,1.13a12.83,12.83,0,0,0,6.22,4.52c-.23,2.14-1.64,2.51-3.49,2.54s-3.66-.58-5.16.93c-2.19-.76-4.37.16-6.56.07-1-1.6-2.62-.89-4-1l-.11-2.3c3.29-1.13,7-1.6,9.05-5.75a48.14,48.14,0,0,1-20.84-.19c1.5,3.66,4.17,4.82,6.93,5.86l1,2.33c-.83,0-1.65.09-2,1l-4.65-.89-3.37-.12-1.81.38-4.17.43a1.28,1.28,0,0,0,.07-1l-.39-2.56c2.8-.68,4.73-2.19,5.53-6-6.76,3.29-13.41.62-20.16,2.11a35.32,35.32,0,0,0,4,2.7,31.3,31.3,0,0,0,4.18,1.39l-.22,2.48h-11c-2.11-.68-5.8,1.93-6-2.84a13.91,13.91,0,0,0,4.62-4c-6.64-.42-13,.88-19.2-1.52l-.35,1.23,6.48,4.9-2.6,2.31-7-.1c-1.51.27-3.6-.65-4,1.94-4.36.37-7.43-2.67-11.07-4.2-1.72-1.15-1.81,0-1.81,1.28-2.21,1.34-4.66,1-7.06,1l-.9-2-.49-6.08a26.31,26.31,0,0,0,0-7.95c.54-2.52,1.25-5,1.55-7.57.21-1.78-.08-3.7-2.3-4.34s-3.36.63-4,2.54-2.24,3.27-2.09,5.4l-.17.33-4.43,6.84c-5.93,4-7.43,7.52-5.15,12l-3.84,4.76c-2.32.07-3.81-2.9-6.42-1.79-.69-1.4-2-.36-2.93-.74l-.63-2c1.17-2.29.74-4.88,1.31-7.28,2-1.75,2.07-3.48-.06-5.18a39.19,39.19,0,0,1-.11-11.84c6.2-6.25,7.72-14.42,9.32-22.57a26.14,26.14,0,0,1,4.45-11.37c2.73-4.24,7-5.92,12-5.31a40.91,40.91,0,0,1,10.88,3.16l.43,2,.62,2.08-1.38.55a6.39,6.39,0,0,0-4.9-.7c5.34,4.9,11.86,2.74,18,2.95-3.15-2.26-7.73-1.19-10.17-4.77l2.58-.29,3.63.6c.33,1.48,1.26,1.72,2.54,1.23,6.31.23,12.51,1.61,18.89,1.42,5.36-.16,10.68-.36,15.43-3,3.4-1.9,4.51-.64,6.25,2.41,4.64,8.14,9.91,15.93,15.12,24.18,6.26-8.63,11.85-16.78,15.7-26,.58-1.38.66-2.75,3-1.67,15.74,7.33,31.4,4,47-.72,4-1.19,7.76-2.95,11.94-3.43a12.52,12.52,0,0,1,13.46,8c3,7.15,5.52,14.45,9.32,21.31,3.08,5.54,3.69,12,3,18.42a50.74,50.74,0,0,0,.51,15.84l-1,1.72-1.4.76c-2.43-.8-5.23-2.54-5.56,2.14Zm-47.86-50,.12-.21c-.37-1.43-1.13-2-2.57-1.23a76.47,76.47,0,0,0-14.5,1.24l.07-1.78A46.69,46.69,0,0,1,222,131.19c1.06.32,2.12.19,2.11-1.06s-1-1.46-2.11-1.11a37.21,37.21,0,0,0-12.68.21,1.73,1.73,0,0,0-2.54,1.06c-8.25,1.73-16.25,10.89-15.92,18.64,3-2.2,5.12-5.09,8.43-6.79,8.5-4.39,17.65-4.89,26.81-5.72a3,3,0,0,0,3.07-.72Zm-17.28,9.07c1,.17,1.46-.41,1.75-1.19a.85.85,0,0,0-.26-.78c-1.17-.42-1.64.55-2.25,1.23s-2.41.59-2.27,2.18c0,.32.69.91.88.84C207.7,146.68,208.88,146.29,208.78,144.77Zm37.85-18.62a3.55,3.55,0,0,0-.56-.58c-.44-.6.18-2.76-1.14-1.75-4.63,3.55-10.2,3-15.37,4.21,9.71,2.93,20.54,1.3,22.16-3.48ZM120.19,175.76A19.57,19.57,0,0,1,112,173c-.63-.37-1.27-.51-1.69.13a1.66,1.66,0,0,0,0,1.32A6.64,6.64,0,0,0,121,176.52c3.14-.54,7.31,1.85,9.09-3.43-5.85-.57-10.74-3.51-16.31-5.49C114.45,171.85,119.11,172.37,120.19,175.76Zm30.79-42-.88,1.65c-4-.55-7.92-1.58-12-.78-2.6-1.14-4.28,1.55-6.59,1.86h6.61l3,.39c9.23,1.14,18.36,2.54,25.43,9.51a2.1,2.1,0,0,0,1.81.19c1.34-.5.19-1.28,0-1.91a18.57,18.57,0,0,0-4.54-8.12c-7-7.69-16-8.63-25.55-7.6-1.3-.3-2.87-.62-2.72,1.35.12,1.54,1.64,1.08,2.72,1C142.6,131.67,146.91,132.12,151,133.76Zm54,35.67a16.94,16.94,0,0,0,22.82-1.62C220.43,171.1,212.78,169.54,204.95,169.42Zm27.18-3.31c7.19,3.09,15.94-.47,16.51-7.09A46.6,46.6,0,0,1,232.12,166.11Zm-54.64,2.6c-6.16,1.41-11.54,2.3-18.19.45C165.72,174.78,172.11,174.46,177.49,168.71Zm36.09-27.63c6.32,2.93,12,2.86,17.76,1.42,1-.26,2-.64,1.76-1.94-.07-.45-.34-.78-1-.59C226.27,141.61,220.22,139.26,213.58,141.07ZM134,169.76c7.06,4.56,15.35,4.37,20.55-.27-6.3,0-12.4,0-18.49,0C135.61,169.49,135.12,169.61,134,169.76Zm-8.89-3.83c-4.76-1.58-8.83-4.45-14.34-5.63C114.94,166.31,121.28,168.68,125.15,165.93ZM106.52,135c.41,3.84,2.62,5.35,5.51,5.77,2.48.37,5.11.35,6.74-2.82C114.36,137.8,110.43,137.2,106.52,135Zm76.3,34.69c4.74,3.69,9.16,4.61,14,2.57.71-.3,1.74-.53,1.27-1.67A1.33,1.33,0,0,0,197,170C192.52,171.39,188.12,169,182.82,169.71ZM240.44,138c3.32,2.81,6.13,3.83,9.3,2.32,1.83-.87,3.4-2.26,2.86-5.27C249,137.62,245.2,137.8,240.44,138Zm-96.82,2.83a68,68,0,0,1-16.9.07C132.43,143.91,138.09,144.88,143.62,140.84Zm21.67,5.78c-4.9-.3-8.61.06-12.31-.41C156.52,149.15,160.21,149.33,165.29,146.62Zm31,0c3.84,2.9,6.31,2.83,9.27-.41Z"/><path class="cls-5" d="M227.81,56.45c5.32-6.41,7.59-14.61,12.53-21.23,8.94-12,18.8-23,32.16-30.24A52.86,52.86,0,0,1,278,2.79c-.4,4.71-1.15,8.66-4.64,11.07.32,2.88,4,.28,3.82,2.93-.13,1.77-1.82,2.62-3.37,3.38-1.08.52-2.92.35-2.69,2.3.21,1.78,1.76,2.31,3.18,2.78a26,26,0,0,0,3.11.62c-1.77,3.15-4.58,4.54-7.3,6.1-1.33.76-4,.24-3.8,2.42s2.86,1.75,4.39,2.58c-2.75,2.49-2.79,2.51-10.91,3.91,2.21,3.67,6.27,3.25,9.93,4.9-3.79,2.38-7.73,2.68-11.93,3.36,1.2,2.81,3.86,2.15,5.51,3.2.87.55,2.77-.13,2.61,1.51-.08.88-1.3,2-2.26,2.39a18.06,18.06,0,0,1-8.8,1.26c-.74-.05-1.49,0-3.32,0,3,1.86,5,3.19,5.74,6.52a27.43,27.43,0,0,0-15.6-.43l3.37,5c-7.46-1.1-14.51-1.7-21.28,1.36.54,2.09,2.84,1.68,4,3.29-4.93,1.07-9.63,2.35-13.5,5.84l3,1.36L217,82l-8.72,1.91c-.56,2.34,2.34,2.12,2.6,4.38-4.12.45-8.52-.47-12.46,1.85,0,1.64,2.52.89,3,2.88-3.89.56-7.9,3.76-10.53,3.75-7.27,0-14.66.66-21.83-.16-3-.34-6.09-3.41-9.8-3.35-.15-2.15,2.13-1.77,2.45-3.24-3.81-1.91-7.95-1.49-12-1.65-.83-2.28,2.06-2.22,2.52-4.23l-10.43-2.54c.85-1.82,2.75-1.41,3.86-2.43-3.61-4.14-8.78-4.73-13.64-6,1.14-.92,2.87-1.52,2.28-3.42-.52-1.66-2.22-1.08-3.42-1.38-4.77-1.22-9.55-.73-14.57.07-.23-2,1.67-3.07,2.06-4.86-5.35-1.51-10.54-1.16-16.37.71,1.41-3.35,3.65-4.64,6.27-6.62-5.4-.48-10.86.89-14.48-4.35,3-1.32,6.2-1.39,9.55-4-4.92-.93-8.9-1-12.74-3.45,3.58-1.65,7.43-1.77,10.52-5-4-1-8.24-.29-11.21-3.28.24-1.36,1.57-1,2.2-1.58s2.2-.61,1.86-1.9c-.16-.59-1.17-1.1-1.89-1.38a20.45,20.45,0,0,1-9.27-6.46c.59-1.21,1.72-.63,2.55-.88,1.65-.49,3.42-1.18,3.77-2.9.44-2.14-1.95-1.64-3-2.41-1.48-1.07-3-2.06-3.68-4.21l4.34-.8C86,12,82.8,10.3,82.55,7.17c-.1-1.24-1.33-2.71,0-3.66,1-.68,2.17.2,3.24.71a72.68,72.68,0,0,1,19.92,14.62c9.5,9.47,17.54,19.88,22.78,32.32.6,1.43,1.2,3.17,3.09,3.64a.75.75,0,0,0,.3.83c-.1.94,0,1.8,1.14,2h0a19.17,19.17,0,0,0,5.23,5.87,11.08,11.08,0,0,0,5.5,5.32c.87,1.19,2.44,1.95,2.31,3.75-1.5,2.2.07,2.65,1.73,2.88,1.41.19,2.84.16,4.27.23,2.77,3.54,6.22,3.61,10,2,1.74.14,3.46-1,5.21,0,2,3.8,4.62,4.22,7.87,1.46.83-.71,1.47-1.89,2.89-1.52a6.07,6.07,0,0,0,4.12,1c.89-.3,1.75-1.13,2.75-.3,2.69,2.24,5.51,1.56,8.36.43,2.1,0,4.2,0,6.3-.07,2.84-.07,5.86.31,7.59-2.79,2.09-.4,4.19-.75,6.27-1.22,2.3-.52,1-1.87.62-3L214,70.54l2.17-1.71c2.52-.78,3.65-3,5-4.92,2.92-1.22,3.91-4.21,5.81-6.36ZM190.14,88.63c2.37-.23,3.46-2.21,5.07-3.51-4-1.36-7.16-5-11.82-3.82-.33-.27-.68-.67-1-.07-.06.11.27.44.42.67v1.58c-2.17,1.38-3.51-2.27-5.68-.93L164.87,85c1.65,1.53,2.82,3.38,5.14,3.73C176.73,92.35,183.44,92.27,190.14,88.63Z"/><path class="cls-6" d="M114.49,312.31c-.42-6.88-2.1-13.14-8.43-17.11-11.19-7-25.11.62-27.42,15.06-2.79,3.46-.4,7.65-1.59,11.34H63.45c-.83-5.69-.1-11.47-2.12-17.14-2.17-6.06-6.06-10-12-11.48-6.7-1.64-12.33,1.28-17.11,5.88-6.55,6.31-6.28,14.59-6.48,22.73H11.12c-.79-12.29.34-24.63-1-36.9-.18-1.72.33-2.91,2.43-2.85,2.83.08,5.67.11,8.49,0,2.26-.1,2.13,1.4,2.42,2.9.56,2.88-.24,5.94,1.44,9.37,6.39-9,14.65-13.76,25.61-13.78,11.48,0,19,5.61,24.13,15.6,7.44-10.55,17-16.62,30.31-15.48,10.46.9,20.2,8.33,23,18.44a57.33,57.33,0,0,1,1.83,22.72H116.16C115,318.6,117.38,315,114.49,312.31Z"/><path class="cls-6" d="M417.87,320.57c-.12-11.13-.3-22.26-.36-33.39-.06-12.64.24-25.3-.14-37.93-.14-4.82,1.5-6.14,5.86-5.54,3.1.43,6.3-.59,9.36.57q-.16,19.2-.31,38.4c0,3.33-.14,6.66.08,10,.12,1.73,1,2,1.75.15,6.82-8.22,15.33-12.75,26.26-12.44,16.35.46,27.48,12.1,28.48,30.25.24,4.3-.12,8.62-.21,12.94H473.51c-.09-3.14-.16-6.28-.26-9.43-.39-12.3-7-20.53-17.07-21.38-10.76-.91-20.46,6.91-22.88,18.46-2.16,2.89-.35,6.32-1.26,9.38Z"/><path class="cls-4" d="M255.12,321.6a39,39,0,0,1,36.71-41.09c12.67-.76,24.1,1.72,33.23,11.18,8.06,8.34,11.54,18.4,11,29.91H320.63c-.55-3.6-.68-7.32-1.73-10.77-6.48-21.27-27.47-24.37-39.52-12.37-6.28,6.25-8.88,14.25-8.76,23.1l-1.58,0Z"/><path class="cls-7" d="M220.53,234.95q-.24,7.31-.48,14.62c-4.64.56-9.46-1.23-14,1.1h-10c-.9-1.34-2.3-1.1-3.6-1.1q-12.91,0-25.82,0c-1.29,0-2.69-.25-3.62,1.06l-10,0c-.88-1.33-2.26-1.11-3.55-1.1q-10.3.05-20.6.15c-5.11-4.12-11.07-7.53-12.26-14.88q47.68-.12,95.35-.22C214.89,234.62,217.71,234.84,220.53,234.95Z"/><path class="cls-6" d="M407.93,323.59c0,3-.36,6.05.08,9,.75,4.94-1.6,6.84-5.91,8.47-6.76,2.56-13.45,3.87-20.4,1.55-12.81-4.27-14.18-19.83-10.29-29.43,2.6-6.4,7.32-10,14.22-10.78A30.79,30.79,0,0,1,406.11,307a3.46,3.46,0,0,1,1.84,3.56C407.89,314.92,407.93,319.25,407.93,323.59Z"/><path class="cls-5" d="M182.14,280.31l1.87,2.33a4.51,4.51,0,0,0,2.11,2.94l1,1c.77,1,1.48,2.14,2.92,2.34.75,1.59,2.23,2.24,3.81,3.34,1.46-3-.65-6.35,1.8-8.95,2.3,2,2.45,4.93,3.34,7.47.39,1.13.59,2.43,1.83,2.68,1.46.3,1.87-1.06,2.26-2.15,1.51-4.26,1.8-3.28,4.52-.18,2.57,2.93,5.53,5.43,7.53,9,4.55,8.12,5.7,16.76,4.76,25.84l-15.4-.41c-.23-5.81-.49-11.61-2.45-17.19-6.07-17.23-25.82-22.35-38.86-9.88-5.62,5.38-7.51,12.65-8.87,20-1.6,1-1.57,2-.11,3.07l-.18,2-15.08,0c-1.16-13.5,2.34-21.18,16.35-35.67,1.38,2.15,1.75,4.91,4.26,6.79l2.85-9.51c1.28-.35,1.57-1.48,2-2.52,2.06,2.36.77,5.34,1.49,7.95a.33.33,0,0,0-.09.56c-.45.34-.6.71-.08,1.1,0,0,.35-.4.53-.61a1.78,1.78,0,0,0,2-1.08c3.71-2.67,7.57-5.22,9-10Z"/><path class="cls-8" d="M106.9,215.65a73.5,73.5,0,0,1-2.79-13.06h7l.09,0c-.28,2.68.83,4.07,3.63,4,4.81,0,9.61-.06,14.42,0,2.19,0,3-1,2.87-3,3.76-.76,7.26,1.45,11,1,.17,1-.29,2.61,1.3,2.73,2.06.16,1.46-1.66,1.69-2.81h2c4.37,1.65,8.63,3.38,13.53,3.18a130.89,130.89,0,0,1,19.39.22c7.63.83,15.13,1.24,22.66-.4,4.72,3.26,7.22,2.75,9.45-1.92,3.85-.46,8.42-2.45,11.42-1.06,7.08,3.28,14.19,1.39,21.23,2.09,2.27.23,3.44-.71,3.35-3.06l5.75,1.08-1.21,11.26c-1.16-.1-2.32-.27-3.48-.27Z"/><path class="cls-9" d="M231.12,244.85c4.64,0,10.52-1.65,13.57.57s.89,8.4.92,12.83c.11,18.29.06,36.58,0,54.87,0,1.81-.24,3.62-.37,5.43l-14.89,0q0-36.49,0-73Z"/><path class="cls-10" d="M106.9,215.65l143.34,0c1.16,0,2.32.18,3.48.27a10,10,0,0,1-4.59,7.72H111C107.28,222.2,106.54,219.21,106.9,215.65Z"/><path class="cls-4" d="M344.39,321.45c-.16-23.37,18.55-40.1,40.25-40.94a66.11,66.11,0,0,1,21.22,2.17c3.23.94,5,2.38,3.26,5.95a9.33,9.33,0,0,0-.83,2.85c-.49,3.95-1.94,4.88-6,3.24a32.58,32.58,0,0,0-24.32-.38c-12.47,4.73-17.27,14.72-18.22,27.23a2.07,2.07,0,0,0-.77,0Z"/><path class="cls-11" d="M111,223.62H249.12c.13,2.53-1.44,4.25-2.89,6q-35.64,0-71.27,0c-20.43,0-40.86.12-61.3.19C112.51,227.85,111.13,226,111,223.62Z"/><path class="cls-12" d="M113.67,229.79c20.43-.06,40.86-.16,61.3-.19q35.64,0,71.27,0c-.44,4.15-2.83,5.38-6.82,5.24-6.29-.22-12.59,0-18.89.09-2.82-.11-5.64-.32-8.46-.32q-47.67.08-95.35.22C115.57,233.24,113.76,232,113.67,229.79Z"/><path class="cls-10" d="M328.11,349.6a29.32,29.32,0,0,1-11.89,10.32c-.79-1.43-2.17-1.32-3.49-1.32H277.38c-1.34,0-2.7,0-3.41,1.45-2.51-1-4.34-2.85-6.14-4.74,2.74-3.37,6.47-1.11,9.7-1.69,2.3-.42,5.1.9,6.6-2.07,9.15,4.71,17.75,3.39,25.94-2.4C316.06,350.1,322.09,349.41,328.11,349.6Z"/><path class="cls-10" d="M363,359.93c-3.28-2.52-7.25-4.23-9.43-8,3.09-.1,6.19,0,9.25-.33,3.45-.36,7.13,1.28,10.37-1.08,5.88.34,11.06,3.82,17.29,3.2a49.64,49.64,0,0,0,12.89-3c3.88-1.48,5.06-.21,4.9,3.47-.07,1.48-.15,3-.23,4.44-13.2,0-26.4,0-39.6,0C366.59,358.64,364.41,357.81,363,359.93Z"/><path class="cls-4" d="M172.75,122.81c-2.1-4.55-2-9.38-1.69-14.19s3.7-8,7.85-8.13c4.81-.12,7.89,2.65,8.52,7.87A28.72,28.72,0,0,1,186,122.56Z"/><path class="cls-13" d="M131.92,55.63a.75.75,0,0,1-.3-.83q46.21-.11,92.42-.25a4.12,4.12,0,0,1,3.77,1.89L227,57.56c-3.43.12-6.86-.31-10.06,1.82a5.44,5.44,0,0,1-5.31-.12c-3.4-2-7-1.65-10.66-1.65q-21.17,0-42.35,0c-3.76,0-7.58-.53-11,1.95a3.41,3.41,0,0,1-4.22.16c-3.11-2.63-6.78-2.18-10.4-2.07h0C133,56.78,132.89,56,131.92,55.63Z"/><path class="cls-10" d="M155.7,358.81c-2.7-2.46-6.44-3.87-7.76-7.72,2.74-2.95,6.27-.93,9.4-1.43,2-.32,4.52.54,5.09-2.58A31.38,31.38,0,0,0,174,353.71c6.06,1.86,11.61.21,17-2.4.37,2.56,2.32,2.26,4.11,2.27l13.18.08a21.32,21.32,0,0,1-8.07,6.25c-1-2.71-3.3-2.31-5.43-2.31-8.44,0-16.89-.05-25.33,0C164.84,357.66,160.16,357,155.7,358.81Z"/><path class="cls-3" d="M261.25,347.58c-2.3-3.74-4.93-7.34-5-12,5.06-.59,10.77,2.06,14.95-3,1.35,4.59,3.7,8.72,6,12.89-.32,2.31-2.07,2.11-3.7,2.11Z"/><path class="cls-14" d="M163.1,250.64c.92-1.32,2.32-1.06,3.62-1.06q12.91,0,25.82,0c1.3,0,2.7-.24,3.6,1.1-.78,3.31-2.77,5.11-6.26,5a6.93,6.93,0,0,0-3.73,1.09c-3.36.37-7-1.43-10.07,1.16-1.65-.7-3.36-2.09-5-2C166.86,256.24,165,253.53,163.1,250.64Z"/><path class="cls-11" d="M155.7,358.81c4.45-1.82,9.13-1.15,13.74-1.18,8.44-.07,16.89,0,25.33,0,2.13,0,4.44-.4,5.43,2.31-2.64,1.48-5.22,3.15-8.45,3-3.25-.56-6.57-.85-9.82-1.14-4.35-.39-9.2-1.39-12.85,2.55C164.4,363.07,159.51,362.24,155.7,358.81Z"/><path class="cls-11" d="M274,360.05c.71-1.49,2.07-1.45,3.41-1.45h35.35c1.32,0,2.7-.11,3.49,1.32-4.45,2.28-8.82,4.79-14,4.86a21.41,21.41,0,0,0-15.11-.08C282.2,364.58,278.12,362.21,274,360.05Z"/><path class="cls-14" d="M129,249.72q10.3-.08,20.6-.15c1.28,0,2.66-.23,3.55,1.1-1.41,2.35-3.35,4.45-3.68,7.34-3.4-.91-6.89,1.84-10.15,0C135.44,255.82,131.28,253.9,129,249.72Z"/><path class="cls-15" d="M282.06,191.59c-.18,2.19,1.17,4,1.46,6,.24,1.62,4,6.18-2.62,4.23-2.74-.81-2.25,2.59-3.29,4-4.26,1.26-1.64-3.86-4-4.34a38.79,38.79,0,0,1-5-10.8c-.87-2.67-.12-3.41,2.57-3.29-1.42,2.74-1.15,4.37,2.49,4.19C276.45,191.49,279.26,191.59,282.06,191.59Z"/><path class="cls-16" d="M78.92,184.69c2.61-1.11,4.1,1.85,6.42,1.79a3.81,3.81,0,0,0,.52.8c1.64,1.5,4.52-2.08,5,.43.55,2.76.55,6.11-1.45,8.78-.59.79-1.17,1.6-1.75,2.4-3.28-2-7.85.11-10.69-3.32l.52-4.91c2.2-.76,1.62-2.28,1-3.8A2,2,0,0,1,78.92,184.69Z"/><path class="cls-11" d="M363,359.93c1.41-2.11,3.59-1.28,5.44-1.29,13.2-.07,26.4,0,39.6,0,1.46,1.63.52,2.54-1,3.17-1.91.78-3.75,1.82-5.91,1.81-.28-2.09-1.86-2-3.35-2H375.58c-1.5,0-3,0-3.77,1.65C368.54,363,366,360.93,363,359.93Z"/><path class="cls-10" d="M233.31,119.89c-6.06,3.75-12.83,3.43-19.36,2.6-3.8-.48-1.41-3.78-1-5.94,5.78,1,10.93-1.49,16.25-3C230.37,115.79,233.06,117,233.31,119.89Z"/><path class="cls-15" d="M142.44,341.89c-2.1-2.75-2.75-6-3.07-9.3,5.19,1.88,10.57.72,15.86,1l3.46,8Z"/><path class="cls-8" d="M229.17,113.55c-5.32,1.51-10.47,4-16.25,3a2.88,2.88,0,0,1-.05-.49c.16-2.79-.52-6.05.71-8.25,1.34-2.4,4.86.06,7.33-1a29.81,29.81,0,0,1,4.25-1.09C224.36,109.46,228.94,110.39,229.17,113.55Z"/><path class="cls-8" d="M147.71,115.7l.06,1.8c-6,.36-11.42-1.35-16.68-3.94.89-2.82,3.94-4.4,4.32-7.51,2.24.38,4.61,1.41,6.71,1,4.59-.88,4.78,1.69,4.68,4.89C146.06,113.45,145.54,114.9,147.71,115.7Z"/><path class="cls-8" d="M488.68,343.57q0,4,0,8H473.52l0-8Z"/><path class="cls-11" d="M131.09,113.56c5.26,2.59,10.72,4.3,16.68,3.94,1.51,4.28-.37,5.62-4.47,5.46-5.58-.21-11.24.22-16.35-2.72C126.95,117.16,129.95,115.94,131.09,113.56Z"/><path class="cls-8" d="M373.19,350.47c-3.24,2.36-6.91.72-10.37,1.08-3.06.32-6.16.24-9.25.33a11,11,0,0,1-3.85-6.12c4.21-.06,8.42-.1,12.63-.18,1.57,0,3.4.37,3.75-2C368.4,346,371.34,347.65,373.19,350.47Z"/><path class="cls-11" d="M245.38,354.58c.06.15.19.31.17.46-.34,2.81,1.31,7.16-1.47,8.06a22.43,22.43,0,0,1-12.59,0c-2.82-.84-1-4.92-1.14-7.56C235.36,355.25,240.48,356.58,245.38,354.58Z"/><path class="cls-17" d="M210.26,100.22c4.46-.63,9.1.79,11.35-4.56a6.51,6.51,0,0,0,.83-3.79c-.19-1.15-2.44-2.91.38-3.45a3.82,3.82,0,0,1,4.83,3.19c.77,3.81-.72,6.87-3.54,9.27-3,2.55-6.45,3.34-10.16,1.66A30.5,30.5,0,0,1,210.26,100.22Z"/><path class="cls-16" d="M346,336.61a15.47,15.47,0,0,1-1.19-8.05l15.14,0,1.29,6a6.08,6.08,0,0,1-5.27,2.08C352.62,336.46,349.29,336.61,346,336.61Z"/><path class="cls-8" d="M261.25,347.58h12.21c1.63,0,3.39.2,3.7-2.11l7,6.07c-1.5,3-4.3,1.65-6.6,2.07-3.23.59-7-1.68-9.7,1.69C265,353.26,262.57,350.9,261.25,347.58Z"/><path class="cls-8" d="M25.77,343.57l0,8-14.62.05,0-8Z"/><path class="cls-15" d="M334.93,334.59a11.35,11.35,0,0,1-2.51,7.08c-5.18-.27-10.43.41-15.51-1.12l3.09-9c1.17,2.62,3.24,3.27,6,3.07C328.95,334.43,331.94,334.59,334.93,334.59Z"/><path class="cls-11" d="M488.7,355.56c.68,8.07.68,8.07-7.11,8.07h-1c-7.75,0-7.75,0-7.13-8.07A24.76,24.76,0,0,0,488.7,355.56Z"/><path class="cls-8" d="M208.27,353.66l-13.18-.08c-1.78,0-3.73.28-4.11-2.27l5-3.75,17.28.08C212.63,350.52,209.91,351.65,208.27,353.66Z"/><path class="cls-8" d="M245.29,343.57a12.45,12.45,0,0,1,0,6.91l-14.89.07v-7Z"/><path class="cls-8" d="M77.59,350.07l-.18,1.62-14-.14a24.74,24.74,0,0,1,0-8H77Z"/><path class="cls-3" d="M77,195.57c2.84,3.43,7.41,1.31,10.69,3.32.15,1.32-2.28,1.9-1.22,3.21s2-1.09,3.25-.68l1.86,0c.73,2.85-.73,5.07-2.12,7.31l-6.25-.16c-1.18-3.79-1.55-8.6-8.54-5.38Z"/><path class="cls-17" d="M149,99.39c-2.86,4.68-7.22,5.36-12.46,1.94-3.32-2.17-5.12-8.72-3.17-11.52.89-1.28,2.23-1.33,3.56-1.29.91,0,1.19.48,1.34,1.53C139.61,100.1,139.86,100.28,149,99.39Z"/><path class="cls-10" d="M254.92,204.62l-5.75-1.08q0-2,0-3.91,0-1.49.08-3c.92-2.6,2.12-5.13,2-8l.48-.08.48,0c2,.32,3.89,1.38,6,1C257.4,194.65,257.49,199.93,254.92,204.62Z"/><path class="cls-16" d="M219.67,328.67c-.17,2.39-.08,4.84-1.26,7.05l-15.48-.16.53-2.93c1.46-.37,2.07-1,.51-2.07l.39-2Z"/><path class="cls-16" d="M271.19,332.59c-4.17,5-9.88,2.4-14.95,3-.71-2.27-1.53-4.53-1.07-7h15.55Z"/><path class="cls-11" d="M25.76,356.56c.47,7.05.47,7.05-5.62,7.07-9.46,0-9.46,0-9-7Z"/><path class="cls-12" d="M129.87,356.54c.63,7.16.63,7.16-6.46,7.16h-2.49c-6,0-6.57-.74-5.28-7.17Z"/><path class="cls-12" d="M371.81,363.27c.76-1.69,2.27-1.65,3.77-1.65h22.18c1.49,0,3.07-.14,3.35,2C391.31,366.25,381.54,367,371.81,363.27Z"/><path class="cls-15" d="M202.93,335.55l15.48.16c-.19,2.65-.7,5.18-2.76,7.1-4.9-2.05-10.13-.76-15.16-1.47Z"/><path class="cls-3" d="M200.49,341.35c5,.71,10.26-.59,15.16,1.47a10.58,10.58,0,0,1-2.43,4.82l-17.28-.08Z"/><path class="cls-14" d="M206.09,250.67c4.5-2.33,9.32-.54,14-1.1a9,9,0,0,1,.09,2.47c-.53,2.18,1.52,5.79-1.87,6.29s-7.35.55-9.2-3.84C208.47,253,207.11,251.93,206.09,250.67Z"/><path class="cls-11" d="M434.12,292.81c-.76,1.9-1.64,1.58-1.75-.15-.23-3.31-.11-6.65-.08-10q.14-19.2.31-38.4c2.07,1.24,1.11,3.28,1.13,4.93C433.92,263.75,434,278.28,434.12,292.81Z"/><path class="cls-10" d="M63.44,351.55l14,.14q0,3.45.07,6.9l-14.09-.06A20.27,20.27,0,0,1,63.44,351.55Z"/><path class="cls-15" d="M473.51,339.56l0-6h15.19l0,6Z"/><path class="cls-2" d="M473.51,323.56h15.14q0,3,0,6H473.51Q473.51,326.56,473.51,323.56Z"/><path class="cls-16" d="M245.29,327.57a10.35,10.35,0,0,1,0,6.1l-15-.08q0-3,0-6Z"/><path class="cls-10" d="M91.8,227.89c-.79-2.17-1.91-3.6-4.4-2l-2-.45-.08-9.88c1.1,0,2.24.09,2.87-1.12,1.91.64,3.18-1.23,4.93-1.24.68,2.82-1.5,6.2,1.66,8.53l-.08,1.69c-2.31.86-1.6,2.68-1.39,4.35l0,0Z"/><path class="cls-11" d="M432.46,357.51c1,5.73.71,6.07-4.76,6.12-1.65,0-3.31-.15-4.94,0-4.92.54-6.28-1.66-4.9-6.11Z"/><path class="cls-11" d="M106.26,180.56l.9,2c-.45,2.45.86,4.63,1.06,7l.64,4c-2.84-.59-4.34,1.37-5.95,3.14a53.69,53.69,0,0,1-1.71-16.07Z"/><path class="cls-2" d="M138.94,323.62l15.08,0,.7,6H139.21C138.84,327.61,138.14,325.65,138.94,323.62Z"/><path class="cls-16" d="M106.82,105.17c-3.3-2.29-2.59-4,.94-4.7,5.65-1.09,11.36-1.85,17-2.75,2.21-.35,3.6.23,3.2,2.84l-6,1.24c-2.17-.14-4.28-.09-6,1.56l-4,.7Z"/><path class="cls-2" d="M11.12,330.6v-6l14.62,0v6Z"/><path class="cls-15" d="M417.87,339.53a11.41,11.41,0,0,1,0-5.94l14.68,0a12.33,12.33,0,0,1-.05,6Z"/><path class="cls-10" d="M432.46,357.51l-14.6,0a10.28,10.28,0,0,1,0-6l14.51.12Z"/><path class="cls-8" d="M432.4,351.67l-14.51-.12a10.55,10.55,0,0,1,0-6l14.53.08A14.58,14.58,0,0,1,432.4,351.67Z"/><path class="cls-3" d="M432.42,345.65l-14.53-.08a11.13,11.13,0,0,1,0-6l14.6.14A13.05,13.05,0,0,1,432.42,345.65Z"/><path class="cls-15" d="M25.77,333.58l0,6-14.64,0,0-6Z"/><path class="cls-12" d="M258.2,189.57c-2.12.42-4-.64-6-1,.42-2.71,2.57-5.08,1.57-8.06l.73-6.07,5.36.3q-.13,4.28-.26,8.56c-1,.55-1.79,1.17-.53,2.26Z"/><path class="cls-10" d="M235.16,109.58l-2.21.13.09.08c-.09-.6,0-1.59-.3-1.75-5.46-2.79-3.31-5.72-.24-8.7,1.29,1.48,3.2,1.44,4.87,2,2.06.7,4.69-.61,6.24,1.81a5.48,5.48,0,0,0-4.19,3.81A3.73,3.73,0,0,1,235.16,109.58Z"/><path class="cls-14" d="M259.84,174.78l-5.36-.3-.76-8.84c.22-1.17.17-2.24-1.13-2.8l.08-3.27C259.74,162,260.78,164.22,259.84,174.78Z"/><path class="cls-15" d="M129.82,333.58a13.94,13.94,0,0,1,0,6H116.22q0-3-.07-6Z"/><path class="cls-16" d="M158.33,118.64c-3.78,4-4.87,3.86-6.41-1-.8-2.52-1.46-5.09-2.08-7.66-.36-1.47-1.81-3.55.51-4.22,2-.59,4.93-2.23,6.16,1.49-3,2.67-2.51,5.46-.29,8.31C156.31,117,156.76,118.22,158.33,118.64Z"/><path class="cls-15" d="M63.43,339.57a13.94,13.94,0,0,1,0-6H77.06l-.07,6Z"/><path class="cls-2" d="M270.72,328.58H255.17a10.14,10.14,0,0,1-.06-5c3.41,0,6.82,0,10.24,0,1.54,0,3.44.47,3.7-2l1.58,0Q270.67,325.07,270.72,328.58Z"/><path class="cls-8" d="M115.81,351.68a13.85,13.85,0,0,1,0-5.8l14-.31a14.08,14.08,0,0,1,0,6Z"/><path class="cls-3" d="M129.77,345.57l-14,.31-.24,0c1.07-2,.27-4.25.67-6.34h13.57A13.76,13.76,0,0,1,129.77,345.57Z"/><path class="cls-3" d="M366.11,343.6c-.35,2.36-2.18,2-3.75,2-4.21.07-8.42.12-12.63.18a1.22,1.22,0,0,1-1-1.49l.34-2.67c4.74-2.19,9.79-.36,14.63-1.13A4.11,4.11,0,0,1,366.11,343.6Z"/><path class="cls-3" d="M142.44,341.89l16.25-.3,1.51,2.81c-1,2.3-3,2.11-4.94,2.22-3.37.19-6.86-.81-10.08.94A8.56,8.56,0,0,1,142.44,341.89Z"/><path class="cls-2" d="M243.6,103.15c-1.55-2.43-4.19-1.11-6.25-1.81-1.67-.57-3.58-.52-4.87-2,.73-2.39,2.62-1.58,4.13-1.36,5.23.76,10.43,1.7,15.66,2.5,3,.45,3.7,1.8,2,4.32l-5.75-.72C247,103,245.26,103.29,243.6,103.15Z"/><path class="cls-2" d="M245.29,327.57h-15l.09-5h14.9A7.8,7.8,0,0,1,245.29,327.57Z"/><path class="cls-2" d="M359.92,328.58l-15.14,0a4.81,4.81,0,0,1-.45-5h15.43Z"/><path class="cls-3" d="M245.29,343.57H230.36q0-2.5,0-5h14.92A7.46,7.46,0,0,1,245.29,343.57Z"/><path class="cls-12" d="M77,339.57q0-3,.07-6,0-2.5,0-5v-5l0-2c1.18-3.69-1.2-7.88,1.59-11.34.82,12.58.05,25.17.12,37.76a2.27,2.27,0,0,1-1.18,2q-.29-3.25-.58-6.5Q77,341.57,77,339.57Z"/><path class="cls-10" d="M230.37,350.56l14.89-.07a5.11,5.11,0,0,1,.11,4.09c-4.9,2-10,.67-15,1Z"/><path class="cls-15" d="M245.28,338.58H230.36l-.08-5,15,.08A7.79,7.79,0,0,1,245.28,338.58Z"/><path class="cls-2" d="M336,324.59l-.11,4c-5.13,1.41-10.38,1-15.6,1l.31-5Z"/><path class="cls-7" d="M248.47,104.08l5.75.72a20.37,20.37,0,0,1-8.44,10.39c-2.47,1.59-4.58,1.77-5.82-1.49,2.42-.28,3.75-2,5-3.82S246.11,105.29,248.47,104.08Z"/><path class="cls-10" d="M488.7,355.56a24.76,24.76,0,0,1-15.23,0l.05-4h15.12Z"/><path class="cls-2" d="M417.83,328.53a8.3,8.3,0,0,1,0-5l14.63.07a7.76,7.76,0,0,1,0,5.05Z"/><path class="cls-13" d="M98.93,162.56c-.16-2.13,1.48-3.57,2.09-5.4s1.75-3.18,4-2.54,2.5,2.56,2.3,4.34c-.3,2.55-1,5-1.55,7.57l-4.72-.11C101,164.79,101.6,162.77,98.93,162.56Z"/><path class="cls-10" d="M25.76,356.56l-14.67,0,0-5,14.62-.05Z"/><path class="cls-16" d="M320.31,329.58c5.22,0,10.47.4,15.6-1,.66,2.16-1.22,3.92-1,6-3,0-6-.15-9,.06-2.73.19-4.8-.46-6-3.07Z"/><path class="cls-16" d="M417.83,328.53l14.68.17a7.73,7.73,0,0,1,0,4.93l-14.68,0A8.58,8.58,0,0,1,417.83,328.53Z"/><path class="cls-8" d="M328.11,349.6c-6-.19-12,.5-18-.45l5-5.6c.35,2.41,2.22,2,3.83,2,3.81.05,7.63.07,11.44.11A5.18,5.18,0,0,1,328.11,349.6Z"/><path class="cls-12" d="M63.39,358.52l14.09.06c1.41,3.26.53,5.09-3.21,5.11-2.16,0-4.33-.17-6.46,0C63.68,364.14,62.28,362.44,63.39,358.52Z"/><path class="cls-16" d="M129.82,333.58H116.15q0-2.5,0-5l13.68,0A9.87,9.87,0,0,1,129.82,333.58Z"/><path class="cls-16" d="M77.08,328.59q0,2.5,0,5H63.4a9.87,9.87,0,0,1,0-5Z"/><path class="cls-12" d="M169.09,364.36c3.65-3.94,8.5-2.93,12.85-2.55,3.25.29,6.56.58,9.82,1.14C184.42,367,176.78,366.09,169.09,364.36Z"/><path class="cls-11" d="M274.41,219.55c.14,1.8.35,3.61.39,5.41,0,1.19-.84,2.16-1.85,1.43-3.85-2.79-4.12,1.18-5.94,3.32-1.15-3.6-2.2-6.72-1-10.15Z"/><path class="cls-10" d="M115.81,351.68l14-.14.09,5H115.64Q115.72,354.11,115.81,351.68Z"/><path class="cls-3" d="M330.36,345.7c-3.81,0-7.63-.06-11.44-.11-1.61,0-3.48.37-3.83-2a3.41,3.41,0,0,1,1.82-3c5.09,1.53,10.33.84,15.51,1.12C332.52,343.41,331.32,344.49,330.36,345.7Z"/><path class="cls-2" d="M77.08,328.59l-13.68,0a9.86,9.86,0,0,1,0-5l13.66,0Z"/><path class="cls-2" d="M129.81,328.57l-13.68,0q0-2.5,0-5l13.66,0A9.86,9.86,0,0,1,129.81,328.57Z"/><path class="cls-15" d="M363.74,340.47c-4.85.77-9.9-1.06-14.63,1.13l-2-1a5.36,5.36,0,0,1-1.11-4c3.32,0,6.65-.15,10,0a6.08,6.08,0,0,0,5.27-2.08Z"/><path class="cls-16" d="M111.7,82.38c.62-3.46,2.62-4.48,5.62-2.8,3.44,1.93,6.73,4.14,10,6.29a2.14,2.14,0,0,1,.64,2.67c-4.16,1-6.41-3.16-10-3.66Z"/><path class="cls-2" d="M282.06,191.59c-2.8,0-5.61-.1-8.4,0-3.64.18-3.92-1.45-2.49-4.19l3,.44c1.75,1.14,1.8-.14,1.91-1.34.32-4.68,3.12-2.94,5.56-2.14Z"/><path class="cls-11" d="M248.47,104.08c-2.36,1.22-2.3,3.91-3.55,5.8s-2.54,3.54-5,3.82l-4.81-4.12a3.73,3.73,0,0,0,4.25-2.61,5.48,5.48,0,0,1,4.19-3.81C245.26,103.29,247,103,248.47,104.08Z"/><path class="cls-12" d="M116.14,323.59q0,2.5,0,5t0,5q0,3,.07,6c-.4,2.09.4,4.32-.67,6.34a2,2,0,0,1-1.14-2q0-15.8.08-31.6c2.89,2.68.54,6.3,1.67,9.29Z"/><path class="cls-16" d="M85.82,135.1c-1.6,8.14-3.12,16.32-9.32,22.57C77.86,149.43,80.53,141.72,85.82,135.1Z"/><path class="cls-15" d="M131.09,113.56c-1.14,2.38-4.14,3.6-4.14,6.68-1.26.25-2.57.82-3.51-.66s.05-2.44.85-3.47c2.1-2.71,4-5.57,6.36-8.09,1.14-1.24,2.22-3.68,4.76-2C135,109.16,132,110.74,131.09,113.56Z"/><path class="cls-2" d="M232.92,88.77c-.21-2.47,6.62-8.57,10.93-9.53,2.58-.57,4.49.29,4.77,3.29-1.51-.72-2.44.41-3.5,1.1l-5,2.08C237.72,86.72,235.6,88.4,232.92,88.77Z"/><path class="cls-16" d="M473.51,329.56h15.14l0,4H473.49Z"/><path class="cls-3" d="M473.51,339.56h15.15l0,4H473.49Z"/><path class="cls-5" d="M245.27,322.58h-14.9v-4l14.89,0A5.37,5.37,0,0,1,245.27,322.58Z"/><path class="cls-10" d="M118,84.88c3.6.5,5.85,4.69,10,3.66-2.27,6.24-2.27,6.24-10.2,4.55Q117.9,89,118,84.88Z"/><path class="cls-16" d="M139.21,329.59h15.51l.52,4c-5.29-.27-10.67.89-15.86-1Z"/><path class="cls-10" d="M102.9,196.68c1.6-1.76,3.1-3.73,6-3.14.46,1.21.2,2.89,2.07,3.18l.18,5.88h-7C102.49,200.87,103.37,198.64,102.9,196.68Z"/><path class="cls-2" d="M207.05,105.48c3.8-.47,3.43,2.25,3,4.42-.48,2.72-1.71,5.3-2.2,8-.69,3.83-2.28,4.48-5.24,2l.75-3.13C205.09,113.17,207.85,109.9,207.05,105.48Z"/><path class="cls-8" d="M273.6,201.54c2.38.48-.24,5.6,4,4.34l-1.83,6.64-1.62.17a2.18,2.18,0,0,0-2.24,1.23c-1.46-3-3-6-3.48-9.36,1.69,0,3.53.34,3.78-2.16Z"/><path class="cls-2" d="M159.41,285c-2.13-1.69-2.49-4-3-5.9-.39-1.39-2.4-3.48.15-4.69,1.59-.76,3.58-1.27,5.28-.11,2.19,1.49.59,3.32.09,4.9A62.66,62.66,0,0,1,159.41,285Z"/><path class="cls-2" d="M200.4,273.61c1.43.82,4.34-.23,3.9,2.56-.47,3-1.83,5.83-2.8,8.74-2.91-2.11-3.61-5.42-4.35-8.58C196.55,273.77,199,274.2,200.4,273.61Z"/><path class="cls-16" d="M229.17,113.55c-.23-3.17-4.81-4.09-4-7.79,2.41-.87,2.76,1.5,4,2.48,1.09.84,1.48,3.85,3.86,1.54l-.09-.08c-1.89,3,1.92,3.73,2.33,5.82l1.26,4.21a2.23,2.23,0,0,1-3.22.15C233.06,117,230.37,115.79,229.17,113.55Z"/><path class="cls-3" d="M11.11,339.6l14.64,0,0,4-14.68,0Z"/><path class="cls-12" d="M118,84.88q-.1,4.11-.19,8.21l-6.65-1.65c-.91-3.08,2-6.06.25-9.16l.3.1Z"/><path class="cls-12" d="M112,104.06l4-.7c1.12,3.54,1.79,7.41,6.32,8.37L118,115.51C114.83,112.3,112.29,108.77,112,104.06Z"/><path class="cls-3" d="M77,339.57q0,2,0,4H63.4l0-4Z"/><path class="cls-8" d="M145.17,347.56c3.22-1.76,6.72-.76,10.08-.94,2-.11,4,.07,4.94-2.22a4.81,4.81,0,0,1,2.23,2.68c-.57,3.11-3.05,2.25-5.09,2.58-3.13.49-6.65-1.52-9.4,1.43C146.47,350.34,145.31,349.36,145.17,347.56Z"/><path class="cls-11" d="M122.4,111.73c-4.53-1-5.2-4.83-6.32-8.37,1.7-1.66,3.81-1.71,6-1.57-.37,2.83,1.32,5,2.26,7.47C124.35,110.61,123.35,111.15,122.4,111.73Z"/><path class="cls-15" d="M172.75,122.81l13.24-.25c0,2.32-.4,4.44-2.53,5.83-2.4-3.32-5.78-1.29-8.73-1.59C173.11,125.95,173,124.35,172.75,122.81Z"/><path class="cls-7" d="M112,104.06c.26,4.71,2.8,8.23,5.93,11.44-4.62.66-9.91-4.24-11.15-10.34Z"/><path class="cls-16" d="M186.43,282.66a3.05,3.05,0,0,0,.48-3.17c-.46-1.2-1-2.71.38-3.58a4.54,4.54,0,0,1,4.26-.13c1.85.86.69,2.6.59,3.94-.12,1.74-.47,3.47-.74,5.3-2.25.18-2.61-3.32-5-2.37Z"/><path class="cls-10" d="M271.92,213.9a2.18,2.18,0,0,1,2.24-1.23,1.86,1.86,0,0,0,.85,1.9l-.6,5-8.41,0c0-2.11,0-4.22,0-6.65C268.13,213.43,269.79,215.72,271.92,213.9Z"/><path class="cls-16" d="M169,286.56c-.58-3.06-.93-4.93-1.29-6.79-.27-1.38-1.34-3.13.44-3.91,1.56-.68,3.74-1.07,5.1.35s.43,3-.53,4.46C171.65,282.27,170.66,283.93,169,286.56Z"/><path class="cls-12" d="M210.15,266.82c-.23-1.94.51-4.09,3.14-4.22s3.07,2.1,2.83,4.24-.19,4.49-3.28,4.62C209.59,271.59,210.29,269.21,210.15,266.82Z"/><path class="cls-10" d="M232.92,88.77c2.68-.37,4.81-2.05,7.22-3.05l.92,7.57C234.23,95.11,234.23,95.11,232.92,88.77Z"/><path class="cls-5" d="M336,324.59h-15.4q0-1.49,0-3h15.46Z"/><path class="cls-10" d="M124.31,109.27c-.94-2.43-2.62-4.64-2.26-7.47l6-1.23C131.5,104.73,131.26,105.3,124.31,109.27Z"/><path class="cls-15" d="M89.18,181.72c-2.28-4.47-.78-8,5.15-12,.19,1.15-.44,2.7,1.47,3C93.47,175.63,92.17,179.3,89.18,181.72Z"/><path class="cls-8" d="M207.05,105.48c.8,4.42-2,7.69-3.65,11.32-1-2-3.71-3.1-3.2-5.92C202.63,109.25,202.5,104.4,207.05,105.48Z"/><path class="cls-2" d="M219.67,328.67l-15.31-.09.13-3,15.4.41Z"/><path class="cls-16" d="M25.77,333.58l-14.69,0,0-3,14.62,0Z"/><path class="cls-11" d="M166.84,265.7c0-2.38.48-4.32,2.92-4,3.19.42,2.65,3.38,2.95,5.52.27,1.93-.72,3-2.86,3.13C165.61,270.54,168,266.88,166.84,265.7Z"/><path class="cls-5" d="M432.48,323.64l-14.63-.07a3.5,3.5,0,0,1,0-3l14.17,0,.87,1.33Z"/><path class="cls-5" d="M25.74,324.58l-14.62,0v-3H25.74Z"/><path class="cls-10" d="M204.46,263.55c-.29,2.77,1.67,6.72-4.22,6-5.15-.6-2.63-3.76-2.73-6.13Z"/><path class="cls-11" d="M241.06,93.29l-.92-7.57,5-2.08c.06,2.71,1.47,5.25,1,8C244.51,92.44,243.06,93.73,241.06,93.29Z"/><path class="cls-12" d="M193.15,265.83c-.32,2.08.27,4.53-3.18,4.6-2.76.06-2.71-1.46-2.89-3.45-.33-3.58,2.38-3.65,4.52-4S192.91,264.75,193.15,265.83Z"/><path class="cls-16" d="M204.46,263.55l-7-.09.49-1.92.7-.25-.73-.62c-.4-3,1-4.79,3.85-4.18C205.78,257.35,205.59,260.43,204.46,263.55Z"/><path class="cls-10" d="M235.13,76c-.09,1.75-6.56,7.74-8.09,7.67-.78,0-1.82.07-2-1a2.31,2.31,0,0,1,.48-1.81A78.05,78.05,0,0,1,232.34,75C233.39,74.26,235,74.11,235.13,76Z"/><path class="cls-2" d="M149.19,286.34c-4.48-1.52-4.25-5.24-4.54-8.26-.25-2.62,2.34-1.41,3.73-1.6,2-.27,2.15,1.17,1.68,2.52C149.28,281.32,148.59,283.61,149.19,286.34Z"/><path class="cls-14" d="M101,166.42l4.72.11a26.31,26.31,0,0,1,0,7.95l-5.41.29-.45-2.2c1.29-.76,1.1-1.91.83-3.09Z"/><path class="cls-10" d="M126.5,74.65c2.58,2.54,6.15,3.86,8.37,6.85a1.09,1.09,0,0,1-.31,1.7,3.48,3.48,0,0,1-2.35.33c-3.1-1.4-5.05-4.12-7-6.74C124.64,76,125.05,74.87,126.5,74.65Z"/><path class="cls-16" d="M211.42,286a17.57,17.57,0,0,0-1.29-6.09c-.32-1-1.51-2.23-.23-3.05a5.25,5.25,0,0,1,4.74-.15c1.34.55.8,2.06.53,3.07C214.57,282,214.67,284.74,211.42,286Z"/><path class="cls-12" d="M246.12,91.66c.47-2.78-.94-5.32-1-8,1.06-.69,2-1.82,3.5-1.1l1.52,1,.11,7.31A6.25,6.25,0,0,1,246.12,91.66Z"/><path class="cls-13" d="M176.07,257.89c3.1-2.58,6.71-.78,10.07-1.16-2,2.05-4.53,3.64-5.85,7.67C179.41,261,176.46,260.53,176.07,257.89Z"/><path class="cls-10" d="M127.61,263.88c1.95.17,3,1.93,5,2,1.63,0,1.15,1.65.8,2.78s-.33,2.83-2,3.06c-1.25.17-1.68-1-2-1.9C128.73,267.91,126.64,266.4,127.61,263.88Z"/><path class="cls-16" d="M155.08,261.68c-.47-2.6.13-4.61,3-5.2,2.31-.47,3.41.61,3.34,2.94l-.52,3c-1.65-.3-3.31,1.12-5,0C156,261.82,155.63,261.63,155.08,261.68Z"/><path class="cls-12" d="M100.36,174.77l5.41-.29.49,6.08-5.06.05Z"/><path class="cls-7" d="M111.4,82.29c1.79,3.11-1.16,6.08-.25,9.16-1.76-.17-4.49-.1-4.6-1.8C106.36,86.41,108.28,83.76,111.4,82.29Z"/><path class="cls-10" d="M156.21,115.58c-2.22-2.85-2.68-5.64.29-8.31l3.75,4.05C159.88,113.68,158.74,115.29,156.21,115.58Z"/><path class="cls-10" d="M156,262.44c1.64,1.15,3.31-.26,5,0l1.45,1.12q.06,2,.11,4a13,13,0,0,1-7.06-1.18l-.35-3.95h.45Z"/><path class="cls-7" d="M262.53,165.19c2.88,2.1,3.87,5.56,5.92,8.25a3.57,3.57,0,0,1-2.8,1.17A9.51,9.51,0,0,1,262.53,165.19Z"/><path class="cls-5" d="M359.76,323.58H344.33a1.6,1.6,0,0,1,.06-2.13l14.62.16.76,1Z"/><path class="cls-12" d="M287.07,364.71a21.41,21.41,0,0,1,15.11.08A29.38,29.38,0,0,1,287.07,364.71Z"/><path class="cls-8" d="M88.21,214.44c-.63,1.22-1.77,1.13-2.87,1.12l-2.14-7,6.25.16Z"/><path class="cls-8" d="M174.74,126.8c2.95.3,6.33-1.73,8.73,1.59l-.42,2.17-6.16.22Z"/><path class="cls-11" d="M200.2,110.87c-.51,2.82,2.17,3.93,3.2,5.92l-.75,3.13C195.87,115.38,195.78,115,200.2,110.87Z"/><path class="cls-5" d="M77.08,323.59l-13.66,0,0-2H77.05Z"/><path class="cls-5" d="M116.14,323.59l0-2h13.61l0,2Z"/><path class="cls-5" d="M269,321.59c-.25,2.47-2.15,2-3.7,2-3.41,0-6.82,0-10.24,0v-2Z"/><path class="cls-3" d="M158.34,101.58c2,1.09,4.53,2,5.75,4.48.34.71-.49,1.94-1.32,1.59-2.41-1-4.82-2.32-6.21-4.67C155.94,101.93,157.13,101.74,158.34,101.58Z"/><path class="cls-3" d="M201.63,101.65c1.33-.13,1.92.39,1.57,1.4-.91,2.64-3.58,3.25-5.62,4.53-.87.54-1.82-.53-1.6-1.24C196.83,103.48,199.58,102.78,201.63,101.65Z"/><path class="cls-3" d="M265.65,174.61a3.57,3.57,0,0,0,2.8-1.17c4.49,2.76,4.73,4.07,1.15,6.28C267,179,267,176.28,265.65,174.61Z"/><path class="cls-10" d="M144.21,267.54c-.2-2.15-.7-4.82,2.46-4.83,2.71,0,3.24,2.34,3.07,4.71Z"/><path class="cls-11" d="M156.21,115.58c2.54-.29,3.67-1.9,4-4.25,3.17,3.44,2.2,5.79-1.92,7.31C156.76,118.22,156.31,117,156.21,115.58Z"/><path class="cls-7" d="M144.21,267.54l5.52-.13c.5,2.2.89,4.18-2.52,4.21C144.07,271.65,143.84,269.9,144.21,267.54Z"/><path class="cls-13" d="M95.8,172.73c-1.91-.3-1.29-1.85-1.47-3l4.43-6.84C98.67,166.44,98.2,169.87,95.8,172.73Z"/><path class="cls-12" d="M176.88,130.78l6.16-.22c-.13,2-1.38,3.57-2.33,5.51C179.45,134,177.32,133,176.88,130.78Z"/><path class="cls-7" d="M250.24,90.86l-.11-7.31c1.34.49,1.78,1.8,2.55,2.81C255.29,89.75,253.9,90.91,250.24,90.86Z"/><path class="cls-11" d="M432.91,321.93,432,320.6c.91-3.06-.9-6.49,1.26-9.38C433.88,314.81,434.43,318.41,432.91,321.93Z"/><path class="cls-3" d="M142.78,93.27c-1.3-.47-2.42-1.27-2.44-2.71a2,2,0,0,1,2.4-1.9c1.15.08,2.39.79,2.19,2.16A2.8,2.8,0,0,1,142.78,93.27Z"/><path class="cls-7" d="M94.8,221.74c-3.17-2.33-1-5.71-1.66-8.53,1.69,1,1.77,1,1.78,2.12C94.94,217.46,94.85,219.6,94.8,221.74Z"/><path class="cls-15" d="M217.27,93.17c-1.3-.62-2.44-1.34-2.21-2.91.17-1.16,1.22-1.49,2.21-1.5,1.33,0,2.2.74,2,2.13C219.1,92,218.63,93.06,217.27,93.17Z"/><path class="cls-7" d="M155.42,266.45a13,13,0,0,0,7.06,1.18c-.07,4.21-3.31,1.69-4.95,2.07C155.27,270.23,155,268.28,155.42,266.45Z"/><path class="cls-15" d="M272.22,202.38c-.24,2.5-2.09,2.19-3.78,2.16l-.12-2.9,2.12-.24Z"/><path class="cls-13" d="M182.14,280.31l-5,.33C178.59,277.4,180.29,277.7,182.14,280.31Z"/><path class="cls-16" d="M76.61,169.51c2.13,1.7,2.07,3.43.06,5.18Z"/><path class="cls-14" d="M236.54,119.74l-1.26-4.21C237.35,116.44,240.25,117.1,236.54,119.74Z"/><path class="cls-7" d="M93.34,227.78c-.21-1.66-.92-3.49,1.39-4.35C94.88,225.08,95.77,227,93.34,227.78Z"/><path class="cls-7" d="M162.37,263.59l-1.45-1.12.52-3C163.59,260.4,163.24,261.94,162.37,263.59Z"/><path class="cls-8" d="M118.33,123.38l-2.58.29-2.2-.11-.43-2A10,10,0,0,1,118.33,123.38Z"/><path class="cls-3" d="M78.56,186.85c.57,1.52,1.15,3-1,3.8C77.38,189.26,77.2,187.84,78.56,186.85Z"/><path class="cls-11" d="M147.71,115.7c-2.16-.8-1.64-2.25-.91-3.75C148.32,112.9,148,114.31,147.71,115.7Z"/><path class="cls-13" d="M100.74,169.48c.27,1.18.47,2.33-.83,3.09C98.68,171.13,99,170.11,100.74,169.48Z"/><path class="cls-13" d="M190,288.94c-1.44-.2-2.16-1.3-2.92-2.34C188.76,286.53,190.19,286.74,190,288.94Z"/><path class="cls-15" d="M276.11,186.55c-.1,1.2-.15,2.49-1.91,1.34l-.29-2.18Z"/><path class="cls-8" d="M347.08,340.6l2,1-.34,2.67C347.18,343.52,347,342.11,347.08,340.6Z"/><path class="cls-13" d="M186.43,282.66h0l-.28,2.92a4.51,4.51,0,0,1-2.11-2.94Z"/><path class="cls-13" d="M164.35,282.71c-.39,1-.68,2.17-2,2.52C162.07,283.63,162.57,282.67,164.35,282.71Z"/><path class="cls-7" d="M91.8,227.89l1.52-.07c-.05,1,.41,2.13-.82,2.77Z"/><path class="cls-14" d="M259,185.6c-1.26-1.09-.51-1.71.53-2.26C260,184.22,260,185,259,185.6Z"/><path class="cls-3" d="M217,82l.25-1.57c.71-.08,1.57.18,1.55.8C218.71,82.32,217.85,82.43,217,82Z"/><path class="cls-11" d="M275,214.57a1.86,1.86,0,0,1-.85-1.9l1.63-.16A1.77,1.77,0,0,1,275,214.57Z"/><path class="cls-8" d="M124.49,125.2c-1.28.5-2.21.25-2.54-1.23C123.14,123.68,124.1,123.85,124.49,125.2Z"/><path class="cls-7" d="M85.42,225.45l2,.45c-.31.82-.81,1.64-1.75,1.29C85,226.94,85.15,226.08,85.42,225.45Z"/><path class="cls-2" d="M283.06,183.65l1-1.72c.42.52,1.53.84.61,1.79C284.17,184.25,283.55,185,283.06,183.65Z"/><path class="cls-8" d="M270.44,201.41l-2.12.24C268.83,199.84,269.59,200.26,270.44,201.41Z"/><path class="cls-13" d="M168.17,290.62a1.78,1.78,0,0,1-2,1.08l-.46-.49a.33.33,0,0,1,.09-.56Z"/><path class="cls-10" d="M198,260.67l.73.62-.7.25A.55.55,0,0,1,198,260.67Z"/><path class="cls-8" d="M91.57,201.44l-1.86,0C90.34,200.59,91,200.18,91.57,201.44Z"/><path class="cls-2" d="M359.77,322.59l-.76-1a2.06,2.06,0,0,1,.77,0Z"/><path class="cls-13" d="M156,262.44l-.45.07h-.45q0-.41,0-.82C155.63,261.63,156,261.82,156,262.44Z"/><path class="cls-16" d="M75.36,182l.63,2C74.18,183.8,74.94,182.83,75.36,182Z"/><path class="cls-2" d="M231.12,244.85l-.76.76C230.19,244.93,230.44,244.68,231.12,244.85Z"/><path class="cls-13" d="M209.29,129.22A37.21,37.21,0,0,1,222,129v2.18a46.69,46.69,0,0,0-12.79,2.54,4.35,4.35,0,0,0-4.21,2.65c1.72.45,3.12.64,4.14-.88a76.48,76.48,0,0,1,14.5-1.24c.39,1.38,1.3,1.67,2.57,1.23l-.12.21a3.82,3.82,0,0,0,0,.72c-9.16.83-18.31,1.33-26.81,5.72-3.31,1.71-5.4,4.59-8.43,6.79-.33-7.75,7.67-16.91,15.92-18.64C207.87,130.58,208.88,130.63,209.29,129.22ZM204,137.12c-.1-.1-.18-.28-.29-.29s-.23.14-.35.22c.1.1.18.28.29.29S203.89,137.2,204,137.12Z"/><path class="cls-13" d="M138.12,134.63c4.07-.8,8,.24,12,.78,1.14,1.78,3.19.82,4.67,1.56.49.52,1.36.84,1.65.3.44-.82-.64-.67-1.06-1-.83-1.94-2.48-2.46-4.38-2.55-4.07-1.64-8.38-2.09-12.69-2.5q0-1.15,0-2.31c9.57-1,18.55-.09,25.55,7.6a18.57,18.57,0,0,1,4.54,8.12c.15.63,1.31,1.41,0,1.91a2.1,2.1,0,0,1-1.81-.19c-7.07-7-16.2-8.37-25.43-9.51l-3-.39Z"/><path class="cls-2" d="M149.13,179.74c.16,4.77,3.84,2.16,6,2.84.31,2.37,2.14,2.73,4,3,2.31.71,4.86.72,6.89,2.29-.77.73-1.94,1.16-1.9,2.5-5.26,1.52-10.59.94-15.91.49-1.57-.89-3.26-.42-4.91-.45-.11-1.42,1.39-1.75,1.86-2.77.77-1.62,3.66-.48,3.93-3.29h-9.92l-1.06-1.71,2.6-2.31A24,24,0,0,0,149.13,179.74Z"/><path class="cls-2" d="M219.06,180.48l.07,3.89-8.74.49,4.37,2.9c-1.36,2.34-3.68,1.6-5.73,1.87-3.31.43-6.87-1.25-10,1.13l-2.95-.34-.3-3.43c2.68-1,5.69-1.24,7.85-3.42,1.5-1.51,3.41-.9,5.16-.93s3.27-.39,3.49-2.54Z"/><path class="cls-13" d="M188.14,180.27c-2.76-1-5.43-2.19-6.93-5.86a48.14,48.14,0,0,0,20.84.19c-2.06,4.15-5.77,4.62-9.05,5.75Z"/><path class="cls-13" d="M149.13,179.74a24,24,0,0,1-8.46.61l-6.48-4.9.35-1.23c6.19,2.4,12.56,1.1,19.2,1.52A13.91,13.91,0,0,1,149.13,179.74Z"/><path class="cls-13" d="M166.32,180.1a31.29,31.29,0,0,1-4.18-1.39,35.32,35.32,0,0,1-4-2.7c6.75-1.49,13.4,1.18,20.16-2.11-.8,3.84-2.73,5.35-5.53,6Z"/><path class="cls-2" d="M253.76,180.55c1,3-1.15,5.35-1.57,8.06l-.48,0-.48.08-9-.14a8.86,8.86,0,0,1-.17-.91l-.52-1.8c.48-1.5,4.16-1.91,1.52-4.46l1-2.7,1-.12C247.36,183.68,248.55,184,253.76,180.55Z"/><path class="cls-2" d="M108.21,189.57c-.2-2.35-1.51-4.53-1.06-7,2.4,0,4.85.34,7.06-1l1.49.06a6.75,6.75,0,0,0,3.49,4.75l-.21,1.84-.13,1.35Z"/><path class="cls-13" d="M219.06,180.48l-6.74-.38a12.83,12.83,0,0,1-6.22-4.52c6.52-.22,12.7,1,18.83-1.13C224,177.85,221.44,179.09,219.06,180.48Z"/><path class="cls-13" d="M120.19,175.76c-1.08-3.39-5.74-3.91-6.44-8.15,5.56,2,10.46,4.92,16.31,5.49-1.78,5.27-6,2.89-9.09,3.43Z"/><path class="cls-14" d="M204.95,169.42c7.83.12,15.49,1.68,22.82-1.62A16.94,16.94,0,0,1,204.95,169.42Z"/><path class="cls-13" d="M203.68,183.57c-2.16,2.18-5.18,2.42-7.85,3.42-3.52.75-7,1.5-10.65.49-1.83-1-3.27-2.32-2.73-4.73l4.65.89c.46,1,1.29.65,2.05.55l3.91.07c1.37-.09,2.87.74,4-.62C199.31,183.73,201.48,182.81,203.68,183.57Z"/><path class="cls-2" d="M229.67,183.58q-.09-.46.39-.52a1.35,1.35,0,0,1,.49-.52c1.24,0,2.39.18,2.67,1.7-.5.41-1.77.23-1.31,1.35.39.95,1.4,1,2.35.94l2.83.23.7,1.81a.73.73,0,0,0,.26.65c-4.57.7-9.11,1.67-13.77,1.18l-.17-2.8C225.78,186,228.49,185.85,229.67,183.58Z"/><path class="cls-13" d="M246.63,126.15l5.09-1.6c-1.62,4.78-12.45,6.4-22.16,3.48,5.17-1.17,10.74-.66,15.37-4.21,1.31-1,.7,1.16,1.14,1.75l-.67.48Z"/><path class="cls-14" d="M232.12,166.11A46.6,46.6,0,0,0,248.64,159C248.07,165.64,239.32,169.2,232.12,166.11Z"/><path class="cls-2" d="M127.1,184.51c.37-2.59,2.46-1.67,4-1.94a2,2,0,0,0,.83,2c.15,1.31,1.6,1.32,2.19,2.19q0,1.8,0,3.6A38.52,38.52,0,0,1,122,188.89l.11-2.05C123.83,186.14,126.67,187.89,127.1,184.51Z"/><path class="cls-13" d="M229.67,183.58c-1.18,2.27-3.89,2.43-5.56,4a34,34,0,0,1-9.34.17l-4.38-2.9,8.74-.49,3.88-.15c.85.15,1.65.16,2.06-.81C226.59,183.73,228.18,182.18,229.67,183.58Z"/><path class="cls-13" d="M113.55,123.56l2.2.11c2.44,3.59,7,2.52,10.17,4.77-6.18-.21-12.69,2-18-2.95a6.39,6.39,0,0,1,4.9.7c.65.29,1.45,1,1.38-.55Z"/><path class="cls-14" d="M177.49,168.71c-5.37,5.75-11.77,6.08-18.19.45C166,171,171.33,170.12,177.49,168.71Z"/><path class="cls-14" d="M213.58,141.07c6.64-1.81,12.7.53,18.53-1.12.65-.18.93.14,1,.59.19,1.3-.74,1.69-1.76,1.94C225.57,143.93,219.9,144,213.58,141.07Z"/><path class="cls-13" d="M134,169.76c1.08-.14,1.57-.26,2.06-.26,6.1,0,12.19,0,18.49,0C149.39,174.13,141.1,174.31,134,169.76Z"/><path class="cls-13" d="M166,187.89c-2-1.56-4.57-1.58-6.89-2.29,2.33-2.55,5.42-.5,8-1.33l2.94,0c1.1,0,2.29.41,3-.85l4.17-.43,0,2.63-2.1,2Z"/><path class="cls-13" d="M238.19,175.53c-2.14,0-4.31.57-6.41-.24-.76-.3-1.55-.78-1.47-1.75,0-.36.56-1,.8-1,4.51.46,8.15-3.25,13.06-2.94-1.61,2.89-4.12,4.18-6.08,6Z"/><path class="cls-13" d="M125.15,165.93c-3.87,2.75-10.21.38-14.34-5.63C116.32,161.48,120.39,164.34,125.15,165.93Z"/><path class="cls-14" d="M106.52,135c3.9,2.18,7.84,2.78,12.25,2.95-1.63,3.17-4.26,3.19-6.74,2.82C109.14,140.37,106.93,138.86,106.52,135Z"/><path class="cls-2" d="M175.13,187.65l2.1-2c1.95-.19,1.86-1.63,1.85-3l3.37.12c-.54,2.41.9,3.68,2.73,4.73C181.89,190.86,178.53,190.63,175.13,187.65Z"/><path class="cls-14" d="M182.82,169.71c5.3-.7,9.7,1.68,14.2.26a1.33,1.33,0,0,1,1.1.64c.47,1.14-.56,1.37-1.27,1.67C192,174.32,187.56,173.4,182.82,169.71Z"/><path class="cls-14" d="M240.44,138c4.76-.21,8.53-.39,12.16-2.95.54,3-1,4.39-2.86,5.27C246.57,141.84,243.76,140.82,240.44,138Z"/><path class="cls-14" d="M245.1,178.53l-1,.12c-2.32-.39-5.39.65-5.92-3.13l-.09.1c4,.68,7.15-1.68,10.7-2.92C250.4,176.49,246.38,176.65,245.1,178.53Z"/><path class="cls-14" d="M127.1,184.51c-.43,3.38-3.27,1.63-5,2.33l-2.94-.44a6.75,6.75,0,0,1-3.49-4.75l.32-1.34C119.67,181.84,122.74,184.87,127.1,184.51Z"/><path class="cls-14" d="M120.19,175.76l.77.76a6.64,6.64,0,0,1-10.68-2.12,1.66,1.66,0,0,1,0-1.32c.42-.64,1.05-.5,1.69-.13A19.57,19.57,0,0,0,120.19,175.76Z"/><path class="cls-13" d="M143.62,140.84c-5.53,4-11.19,3.07-16.9.07A68,68,0,0,0,143.62,140.84Z"/><path class="cls-13" d="M237.09,186.76l-2.83-.23-.24-2,2-.28,3.09-.91c.68.21.89-.22,1-.76l3-1.26c2.64,2.56-1,3-1.52,4.47Z"/><path class="cls-16" d="M167.14,184.27c-2.62.83-5.71-1.22-8,1.33-1.87-.3-3.7-.65-4-3h11A1.79,1.79,0,0,1,167.14,184.27Z"/><path class="cls-13" d="M165.29,146.62c-5.08,2.71-8.78,2.53-12.31-.41C156.68,146.68,160.4,146.32,165.29,146.62Z"/><path class="cls-2" d="M167.14,184.27a1.79,1.79,0,0,0-1-1.69l.22-2.48,6.46-.17.39,2.56c-1.26.21-2.83-.12-3.09,1.8Z"/><path class="cls-2" d="M193.07,184.25l-3.91-.07,0-1.59-1-2.33,4.86.08.11,2.3Z"/><path class="cls-13" d="M196.3,146.6l9.27-.41C202.61,149.43,200.14,149.5,196.3,146.6Z"/><path class="cls-16" d="M131.9,184.56a2,2,0,0,1-.83-2l7,.1,1.06,1.71Z"/><path class="cls-10" d="M151,133.76c1.9.09,3.55.62,4.38,2.55l-.59.66c-1.48-.74-3.54.23-4.67-1.56Z"/><path class="cls-8" d="M209.11,135.5c-1,1.51-2.42,1.33-4.14.88a4.35,4.35,0,0,1,4.21-2.65Z"/><path class="cls-14" d="M138.12,134.63l0,1.86h-6.61C133.84,136.18,135.52,133.49,138.12,134.63Z"/><path class="cls-12" d="M138.29,129q0,1.15,0,2.31c-1.09.12-2.61.58-2.72-1C135.41,128.33,137,128.66,138.29,129Z"/><path class="cls-16" d="M193.07,184.25l0-1.61c1.39.11,3-.6,4,1C195.94,185,194.44,184.16,193.07,184.25Z"/><path class="cls-16" d="M179.08,182.63c0,1.39.1,2.83-1.85,3l0-2.63Z"/><path class="cls-16" d="M170.08,184.29c.27-1.92,1.83-1.59,3.09-1.8a1.28,1.28,0,0,1-.07.95C172.36,184.7,171.17,184.33,170.08,184.29Z"/><path class="cls-7" d="M222,131.19V129c1.09-.34,2.11-.08,2.11,1.11S223,131.51,222,131.19Z"/><path class="cls-16" d="M239.13,183.37l-3.09.91c.29-1.92,1.74-1.73,3.1-1.7Q239.12,183,239.13,183.37Z"/><path class="cls-7" d="M208,144c.61-.68,1.08-1.65,2.25-1.23a.85.85,0,0,1,.26.78c-.29.77-.79,1.36-1.75,1.19Z"/><path class="cls-16" d="M234,184.55l.24,2c-1,.09-2,0-2.35-.94-.46-1.13.81-.95,1.31-1.35A2.36,2.36,0,0,1,234,184.55Z"/><path class="cls-16" d="M116,180.31l-.32,1.34-1.49-.06C114.22,180.31,114.32,179.16,116,180.31Z"/><path class="cls-2" d="M252.59,162.84c1.29.56,1.35,1.62,1.13,2.8C252.1,165.21,252.05,164.15,252.59,162.84Z"/><path class="cls-16" d="M189.11,182.6l0,1.59c-.76.1-1.59.46-2.05-.55C187.46,182.68,188.28,182.64,189.11,182.6Z"/><path class="cls-15" d="M225.07,183.41c-.41,1-1.21,1-2.06.81C223.28,182.89,223.78,182.15,225.07,183.41Z"/><path class="cls-8" d="M226.18,135.49c-1.27.44-2.18.15-2.57-1.23C225.05,133.45,225.81,134.06,226.18,135.49Z"/><path class="cls-7" d="M209.29,129.22c-.41,1.4-1.42,1.36-2.54,1.06A1.73,1.73,0,0,1,209.29,129.22Z"/><path class="cls-13" d="M208.78,144.77c.1,1.52-1.08,1.91-2.15,2.28-.19.06-.85-.52-.88-.84-.14-1.59,1.53-1.43,2.27-2.18Z"/><path class="cls-14" d="M226.07,136.41a3.82,3.82,0,0,1,0-.72h3.08A3,3,0,0,1,226.07,136.41Z"/><path class="cls-2" d="M239.13,183.37q0-.39,0-.79l1,0C240,183.15,239.81,183.57,239.13,183.37Z"/><path class="cls-16" d="M230.06,183.05c-.51-.11-.89-.34-.58-.92a7.59,7.59,0,0,1,1.08.39A1.37,1.37,0,0,0,230.06,183.05Z"/><path class="cls-8" d="M114.17,125.64c.07,1.51-.73.85-1.38.55Z"/><path class="cls-14" d="M133,57.66c3.63-.11,7.29-.56,10.4,2.07a3.41,3.41,0,0,0,4.22-.16c3.42-2.48,7.24-1.94,11-1.95q21.17,0,42.35,0c3.63,0,7.26-.34,10.66,1.65a5.44,5.44,0,0,0,5.31.12c3.2-2.14,6.63-1.71,10.06-1.82-1.9,2.15-2.89,5.14-5.81,6.36-2.44-2.7-5-1-7.62-.3h-9.35c-4.24-1-7.52,1.68-11.15,3l-4-1.05c-5.77-4.88-11.9-3.17-18.06-1-3.63-1.15-7.28-2.1-11.11-.9-1.34.1-2.7-1.88-4,0l-10.16-.07-7.5-.1A19.17,19.17,0,0,1,133,57.66Z"/><path class="cls-15" d="M170,88.7c-2.31-.35-3.48-2.2-5.14-3.73l12.25-2.43c0,1.54.1,3.1,2.24,3,1.46-.08,3.56.74,3.44-2.05V81.9l.59-.61c4.66-1.14,7.82,2.47,11.82,3.82-1.61,1.31-2.71,3.28-5.07,3.51A38.57,38.57,0,0,0,170,88.7Z"/><path class="cls-3" d="M167.29,77.62c-1.74-.91-3.47.18-5.21,0q0-.83,0-1.65c2.7-.63,5.86.33,8-2.3l19-.12c.86,1.7,3,1,4.13,2.29l.11,2.79c-2.85,1.14-5.67,1.81-8.36-.43-1-.83-1.85,0-2.75.3-.82-1.7-1.8-3.2-4-3A22.9,22.9,0,0,1,167.29,77.62Z"/><path class="cls-12" d="M138.27,63.53l7.5.1c2.46,3.59,5.71,3.24,9.17,1.84,1.78,0,3.71.8,5.19-.92l1.92.39.09,2.73c-2.85,1.88-6.58-.41-9.32,2a16.38,16.38,0,0,0-9.06-.81A11.09,11.09,0,0,1,138.27,63.53Z"/><path class="cls-3" d="M170,88.7a38.57,38.57,0,0,1,20.13-.07C183.44,92.27,176.73,92.35,170,88.7Z"/><path class="cls-3" d="M152.07,75.71c-1.42-.07-2.86,0-4.27-.23-1.66-.23-3.23-.68-1.73-2.88,3.26-.28,6.62.64,9.77-.86l1.75,0c-.38,1.29-.56,2.49,1.2,2.89a1.05,1.05,0,0,1,.33.86C156.84,78,154.42,75.58,152.07,75.71Z"/><path class="cls-2" d="M193.28,78.68l-.11-2.79c3-.05,6.19.6,8.89-1.47,1.28,2,3.45.81,5.12,1.4-1.73,3.1-4.75,2.72-7.59,2.79C197.48,78.66,195.38,78.65,193.28,78.68Z"/><path class="cls-7" d="M213.6,63.62c2.57-.65,5.18-2.4,7.62.3-1.4,1.93-2.52,4.14-5,4.92-1-2.33-3.88-.36-5.06-2.24Z"/><path class="cls-3" d="M207.17,75.82c-1.67-.6-3.84.63-5.12-1.4a.4.4,0,0,1-.08-.53l.16-2.07,2-.27c3.31,1.82,6.63,1.45,10,.05.42,1.13,1.69,2.48-.62,3C211.37,75.07,209.26,75.41,207.17,75.82Z"/><path class="cls-10" d="M155.84,71.73c-3.15,1.5-6.51.59-9.77.86.13-1.8-1.44-2.56-2.31-3.75a16.38,16.38,0,0,1,9.06.81Z"/><path class="cls-14" d="M167.29,77.62a22.9,22.9,0,0,0,10.84-2l-.07,2c-1.42-.37-2.06.81-2.89,1.52C171.91,81.84,169.3,81.42,167.29,77.62Z"/><path class="cls-11" d="M211.11,66.59c1.18,1.89,4.07-.08,5.06,2.24L214,70.54c-2-.25-4.14.81-5.89-.9l.08-2.85Z"/><path class="cls-2" d="M152.07,75.71c2.35-.12,4.77,2.27,7.05-.19L162,76q0,.83,0,1.65C158.29,79.32,154.84,79.25,152.07,75.71Z"/><path class="cls-8" d="M208.11,69.64c1.75,1.72,3.92.66,5.89.9l.06,1.05c-3.33,1.39-6.65,1.77-10-.05l3-2Z"/><path class="cls-2" d="M182.8,83.48c.12,2.8-2,2-3.44,2.05-2.14.11-2.21-1.45-2.24-3C179.29,81.21,180.63,84.85,182.8,83.48Z"/><path class="cls-2" d="M178.05,77.57l.07-2c2.24-.24,3.22,1.25,4,3A6.07,6.07,0,0,1,178.05,77.57Z"/><path class="cls-14" d="M131.92,55.63c1,.35,1.13,1.15,1.14,2C131.89,57.43,131.82,56.58,131.92,55.63Z"/><path class="cls-15" d="M182.8,81.9c-.15-.23-.48-.56-.42-.67.33-.6.68-.2,1,.07Z"/><path class="cls-1" d="M320.63,321.6q0,1.49,0,3l-.31,5-.31,2-3.09,9a3.41,3.41,0,0,0-1.82,3l-5,5.6c-8.19,5.78-16.78,7.11-25.94,2.4l-7-6.07c-2.28-4.16-4.63-8.29-6-12.89l-.47-4q-.05-3.51-.1-7c-.12-8.85,2.47-16.85,8.76-23.1,12-12,33-8.89,39.52,12.37C319.95,314.27,320.08,318,320.63,321.6Zm-40.37.52c.08,5.52.77,10.1,2.93,14.32,5,9.77,15.8,10.09,21.76,3.9,7.18-7.45,7.4-25.42,1.72-33.1s-15.11-7.87-21.57-.62C281,311.27,280.85,317.18,280.26,322.11Z"/><path class="cls-1" d="M204.49,325.58l-.13,3-.39,2a2,2,0,0,0-.51,2.07l-.53,2.93-2.45,5.79-4.55,6.21-5,3.75c-5.42,2.61-11,4.27-17,2.4a31.38,31.38,0,0,1-11.52-6.63,4.8,4.8,0,0,0-2.23-2.68l-1.51-2.81-3.46-8-.52-4-.7-6,.18-2a3.24,3.24,0,0,0,.11-3.07c1.36-7.39,3.24-14.67,8.87-20,13-12.47,32.79-7.35,38.86,9.88C204,314,204.26,319.77,204.49,325.58Zm-9.69-.74a32.09,32.09,0,0,0-3.15-15.78,13.13,13.13,0,0,0-21.89-3.1c-6.55,7.42-7.55,23.68-2,31.88s14.2,9,21.08,2.15C193.57,335.32,194.22,329.17,194.8,324.84Z"/><path class="cls-2" d="M154.31,318.55a3.24,3.24,0,0,1-.11,3.07C152.74,320.55,152.71,319.52,154.31,318.55Z"/><path class="cls-13" d="M166.21,291.7c-.19.21-.52.62-.53.61-.52-.39-.38-.76.08-1.1Z"/><path class="cls-3" d="M249.18,199.64q0,2,0,3.91c.09,2.34-1.08,3.28-3.35,3.06-7-.7-14.15,1.19-21.23-2.09-3-1.39-7.57.61-11.42,1.06l-9.45,1.92c-7.53,1.65-15,1.23-22.66.4a130.89,130.89,0,0,0-19.39-.22c-4.9.2-9.16-1.53-13.53-3.18,1.89-1.25,4.67-4,5.52-3.51,5.83,3.47,11.6-.09,17.36.42,8.22.73,16.55.15,24.83.13l1.28,1,0,0c2.9,3.1,7.64,2.18,9.9-1.93l2.42-.18a58.44,58.44,0,0,0,5.93.16c3.32-.23,7,.48,9.23-3.1,4.61-2.59.38,3,2.5,2.72,1.85-.2,2.25-3.43,4.33-2.56,2.93,1.22,4.87.38,6.75-1.85.53-.63,1.52-.06,2.05.68-1.12,1.83-1.19,3.11,1.51,3.08C244.24,199.59,246.71,199.63,249.18,199.64Z"/><path class="cls-15" d="M209.45,200.47l-2.42.18c-3.35.4-6.33,2.66-9.9,1.93l0,0a1.16,1.16,0,0,0-1.28-1c-8.28,0-16.61.6-24.83-.13-5.76-.51-11.53,3.05-17.36-.42-.84-.5-3.63,2.26-5.52,3.51h-2c-1-1.19-2-1.19-3,.08-3.74.47-7.24-1.75-11-1-1.28-1.53-3-1-4.62-1-5.43-.07-10.86,0-16.3-.06l-.09,0q-.09-2.94-.18-5.88l10.18-.13c3.93,4.84,6.48,5.44,9,2.1,1.19-3.14,3.38-1.11,5.2-1-.31,2.06,1.47,1.77,2.54,2.18,5.44,2.09,10.85,1.07,12.65-2.33,2.21-.61,5.23,1.78,6.63-1.81l2-.29c1.45,2,3.6,2,5.79,2.2,10.11,1.15,20.14-2.5,30.26-.38,1,.21,1.68-.91,2.09-1.87l4.86,0c2,1.93,4.85,1.07,7.1,2.18Z"/><path class="cls-3" d="M111.19,202.56c5.43,0,10.87,0,16.3.06,1.58,0,3.34-.54,4.62,1,.13,2-.68,3.05-2.87,3-4.8-.08-9.61-.05-14.42,0C112,206.63,110.92,205.24,111.19,202.56Z"/><path class="cls-14" d="M203.71,207.49l9.45-1.92C210.93,210.24,208.43,210.75,203.71,207.49Z"/><path class="cls-3" d="M143.11,204.59c1-1.27,2-1.27,3-.08-.23,1.15.37,3-1.69,2.81C142.82,207.2,143.29,205.64,143.11,204.59Z"/><path class="cls-16" d="M209.15,197.61c-2.25-1.11-5.1-.25-7.1-2.18,3.17-2.1,7.82.21,10.6-3.5-4.56-1.15-9.2.36-13.57-1.17,3.08-2.38,6.64-.7,10-1.13,2.05-.27,4.37.47,5.73-1.87a34.1,34.1,0,0,0,9.34-.17l.17,2.8a6.2,6.2,0,0,0-1.43.36c-.94.49-.07.73.23.85,5.1,2.12,12.81,2.34,17-2a2.2,2.2,0,0,0,2.2-1.08l9,.14c.16,2.87-1,5.4-2,8l-9-.14c-.53-.74-1.52-1.31-2.05-.68-1.89,2.24-3.82,3.07-6.75,1.85-2.08-.87-2.48,2.36-4.33,2.56-2.12.24,2.11-5.31-2.5-2.72Z"/><path class="cls-15" d="M240.26,196.53l9,.14q0,1.49-.08,3c-2.47,0-4.94-.05-7.41,0C239.07,199.63,239.13,198.36,240.26,196.53Z"/><path class="cls-15" d="M203.46,332.62a2,2,0,0,1,.51-2.07C205.53,331.67,204.92,332.25,203.46,332.62Z"/><path class="cls-16" d="M135.28,197.68c-1.82-.1-4-2.13-5.2,1-3.2.19-5.7-2.63-9-2.1l-10.18.13c-1.87-.29-1.61-2-2.07-3.18l-.64-4,10.65,0c6,3.84,12.09,5.2,19.37,1.14l-4.15-.38q0-1.8,0-3.6a21.85,21.85,0,0,0,11,.91c-.47,1-2,1.35-1.86,2.77.32,2.37,2.38,1.76,3.81,2.21l10,3.09c-1.4,3.58-4.42,1.2-6.63,1.81Z"/><path class="cls-8" d="M204,137.12c-.12.08-.24.23-.35.22s-.19-.19-.29-.29c.12-.08.24-.23.35-.22S203.91,137,204,137.12Z"/><path class="cls-10" d="M155.36,136.31c.42.28,1.51.14,1.06,1-.29.54-1.16.22-1.65-.3Z"/><path class="cls-16" d="M197.19,195.39c-.41,1-1.07,2.08-2.09,1.87-10.12-2.12-20.16,1.53-30.26.38-2.19-.25-4.34-.2-5.79-2.2,1.18-1.66,3-.63,4.47-1a3.49,3.49,0,0,0,2.45-3.17c.17-1-1.19-.63-1.88-.84,0-1.34,1.13-1.77,1.9-2.5l9.15-.24c3.4,3,6.75,3.21,10-.17,3.6,1,7.12.27,10.65-.49l.3,3.43c-1.61.39-4.38.18-1.51,2.88C195.42,194.06,196.33,194.7,197.19,195.39Z"/><path class="cls-13" d="M164.09,190.39c.69.21,2.05-.19,1.88.84a3.49,3.49,0,0,1-2.45,3.17c-1.48.4-3.3-.62-4.47,1l-2,.29-10-3.09,1.1-1.76C153.5,191.33,158.82,191.91,164.09,190.39Z"/><path class="cls-13" d="M145.13,187.66a21.85,21.85,0,0,1-11-.91c-.58-.87-2-.88-2.19-2.19l7.23-.19h9.92C148.78,187.18,145.9,186,145.13,187.66Z"/><path class="cls-7" d="M148.17,190.88l-1.1,1.76c-1.44-.45-3.49.16-3.81-2.21C144.91,190.45,146.6,190,148.17,190.88Z"/><path class="cls-13" d="M197.19,195.39c-.86-.69-1.77-1.33-2.57-2.09-2.87-2.7-.1-2.5,1.51-2.88l2.95.34c4.38,1.52,9,0,13.57,1.17-2.78,3.71-7.43,1.4-10.6,3.5Z"/><path class="cls-3" d="M242.26,188.53a2.2,2.2,0,0,1-2.2,1.08l-2-.4a.73.73,0,0,1-.26-.65c1.39-.49,2.74-1.22,4.3-.95A8.86,8.86,0,0,0,242.26,188.53Z"/><path class="cls-16" d="M242.09,187.62c-1.56-.27-2.9.46-4.3.95l-.71-1.81,4.48-.94Z"/><path class="cls-13" d="M134.08,190.35l4.15.38c-7.27,4.06-13.4,2.7-19.37-1.14l.13-1.35,3,.65A38.52,38.52,0,0,0,134.08,190.35Z"/><path class="cls-16" d="M122,188.89l-3-.65.21-1.84,2.94.44Z"/><path class="cls-1" d="M238.05,189.21l2,.4c-4.18,4.33-11.89,4.12-17,2-.29-.12-1.16-.36-.23-.85a6.2,6.2,0,0,1,1.43-.36C228.94,190.88,233.49,189.91,238.05,189.21Z"/><path class="cls-4" d="M246.63,126.15l-1.23-.1.67-.48A3.55,3.55,0,0,1,246.63,126.15Z"/><path class="cls-7" d="M162.14,67.67l-.09-2.73a19.88,19.88,0,0,0,9-.37c6.16-2.19,12.29-3.9,18.06,1-5.35,2.23-10.95.5-16.4,1-2.06.2-4.39-.52-5.63,2l-1.17-.08C164.89,67.08,163.4,68,162.14,67.67Z"/><path class="cls-11" d="M167.08,68.53c1.24-2.48,3.58-1.76,5.63-2,5.46-.52,11.05,1.21,16.4-1l4,1.05q0,1,0,2c-5.89,2.14-12,.6-18,.86C172.48,69.61,169.53,70.63,167.08,68.53Z"/><path class="cls-7" d="M193.09,68.64q0-1,0-2c3.63-1.31,6.9-4,11.15-3,0,2.65,2.39,2.41,3.94,3.18l-.08,2.85-1-.08c-3.58-1.86-7.42-.75-11.14-1Z"/><path class="cls-13" d="M154.93,65.47c-3.46,1.4-6.71,1.75-9.16-1.84l10.16.07Z"/><path class="cls-13" d="M208.19,66.79c-1.55-.76-3.91-.53-3.94-3.18h9.35l-2.49,3Z"/><path class="cls-1" d="M171.06,64.57a19.88,19.88,0,0,1-9,.37l-1.92-.39a2.81,2.81,0,0,0-.18-.88C163.78,62.47,167.43,63.42,171.06,64.57Z"/><path class="cls-7" d="M160,63.67a2.81,2.81,0,0,1,.18.88c-1.48,1.72-3.41.87-5.19.92l1-1.77C157.25,61.79,158.61,63.77,160,63.67Z"/><path class="cls-10" d="M193.09,68.64l2.83,0,1.19,2c-1,2.07-4.54-.36-5,2.78l-3.11.21-19,.12c-3.77,0-7.6-.65-11.23.94-1.76-.4-1.59-1.6-1.2-2.89,3.18-.08,5.66-1.93,8.32-3.32l1.17.08c2.45,2.1,5.39,1.08,8,1C181.11,69.24,187.2,70.78,193.09,68.64Z"/><path class="cls-13" d="M189,73.59l3.11-.21,9.83.5a.4.4,0,0,0,.08.53c-2.7,2.07-5.85,1.42-8.89,1.47C192.08,74.6,189.9,75.28,189,73.59Z"/><path class="cls-13" d="M158.8,74.65c3.64-1.6,7.47-.92,11.23-.94-2.13,2.63-5.28,1.67-8,2.3l-2.92-.49A1.05,1.05,0,0,0,158.8,74.65Z"/><path class="cls-13" d="M165.92,68.45c-2.66,1.38-5.14,3.23-8.32,3.32l-1.75,0-3-2.08c2.74-2.39,6.47-.11,9.32-2C163.4,68,164.89,67.08,165.92,68.45Z"/><path class="cls-13" d="M197.11,70.6l-1.19-2c3.72.21,7.56-.9,11.14,1l-3,2-2,.27Z"/><path class="cls-8" d="M197.11,70.6l5,1.22L202,73.88l-9.83-.5C192.57,70.24,196.1,72.66,197.11,70.6Z"/><path class="cls-6" d="M280.26,322.11c.59-4.93.7-10.84,4.84-15.5,6.45-7.25,15.83-7.14,21.57.62s5.46,25.65-1.72,33.1c-6,6.18-16.77,5.86-21.76-3.9C281,332.22,280.34,327.63,280.26,322.11Z"/><path class="cls-6" d="M194.8,324.84c-.57,4.34-1.22,10.48-5.92,15.16-6.88,6.86-15.56,6-21.08-2.15s-4.59-24.46,2-31.88a13.13,13.13,0,0,1,21.89,3.1A32.09,32.09,0,0,1,194.8,324.84Z"/><path class="cls-14" d="M209.15,197.61l15.47-.08c-2.21,3.58-5.91,2.86-9.23,3.1a58.44,58.44,0,0,1-5.93-.16Z"/><path class="cls-10" d="M197.14,202.59c3.57.73,6.55-1.53,9.9-1.93C204.78,204.76,200,205.69,197.14,202.59Z"/><path class="cls-10" d="M195.83,201.54a1.16,1.16,0,0,1,1.28,1Z"/><path class="cls-14" d="M135.28,197.68l15.19-.15c-1.8,3.4-7.21,4.43-12.65,2.33C136.75,199.45,135,199.74,135.28,197.68Z"/><path class="cls-7" d="M121.1,196.6c3.28-.53,5.78,2.29,9,2.1C127.58,202,125,201.44,121.1,196.6Z"/></g></g></g></svg>