<svg xmlns="http://www.w3.org/2000/svg" width="498.83" height="374.94" viewBox="0 0 498.83 374.94"><defs><style>.cls-1{fill:#fff;}</style></defs><title>Asset 2</title><g id="Layer_2" data-name="Layer 2"><g id="Layer_1-2" data-name="Layer 1"><g id="hJzvc8.tif"><path class="cls-1" d="M79,6.16c.26-2.1,0-4.37,2.08-6.12,6.32-.47,11.14,3.37,16,6.57a115.11,115.11,0,0,1,24.83,22.71c1.25,1.5,2.5,1.39,4.41,1.51,2.07,5.82,5,11.12,11.89,12.57,2.39.51,4.65.52,6.26-1.75,6.45,3.81,13,6.88,20.26,5,1-2.62-.68-3.45-1.23-4.78A10.71,10.71,0,0,1,174,47c2.22.51,1.72-1.89,2.36-2.1,13.84,4.42,26.71,3.9,39.38-2.88,6.3,4.49,14.9-.56,18.73-11.85,2.42,2.1,3.32,0,4.67-1.52,9.28-10.69,19.57-20.17,32.22-26.84,2.88-1.52,5.74-2.6,9.26-1,2.43,8.22,1.35,16.66.78,23.22,3.75,9.13.21,14.82-4.16,20.1.62,2.15,2.6.46,3.61,2-.48,5.32-4.83,8.22-9.21,11.83l6.49.78c-5.64,8.17-13.18,12.59-21.79,16.29-.78,4.18,1.65,7.26,4.07,9.75-.77,8.68,4.83,16.91-.47,25,13.6,1.17,17.36,12.23,22.4,19.36-1.37,11.93,6,18.43,10.42,26.1-5.95,6.68-3,14.54-2.6,22,.25,4.93,2.77,9.64,1.78,14.84-1.67.55-1.41-2.16-3.62-1.56-1.48,5.05,1,9.92,2,14.75-5.93,7.55-5.4,17.16-8.66,25.67-1,.91-2.49-.78-4,.79-2.83,4.74-5.28,10.42-9.6,15-1.76.47-1.35-2.22-3-2-2.67.19-2.71,3-4.34,4.55-2.47-2.09-2.73-5.05-3.21-7.91s.9-5.82-1.16-8.67v55.22c12.37-13.37,27.42-19.08,44.94-17.51s30.79,10.2,39.36,25.78c16.11-24.64,41.27-29.6,67.09-23.69V234.09h35v39.21c6.24-1.71,11.76-3.15,17.6-3.05A37.34,37.34,0,0,1,496,296.35a54,54,0,0,1,2.86,17.08q.06,28,0,56c0,1-.12,2-.22,3.36H464.45c-1.19-1.87-.67-3.75-.69-5.53-.15-18.16,0-36.32-.47-54.47-.2-8.06-3.24-10.77-9.61-10.4-6,.34-10.73,5.61-10.74,12.07,0,17.5,0,35,0,52.49,0,1.81,0,3.62,0,5.05-1.77,1.79-3.55,1.26-5.12,1.19-10.41-.47-20.89,1.17-31.26-.89-.9-.18-1.94.39-2.91.59-17.3,3.54-34.05,3.35-49.29-7.22-5.81-4-10.17-9.35-14.17-16-9.22,14.9-22.29,23.47-39.63,25-17,1.5-31.82-3.12-43.95-16.58-1.59,5.3-.21,10-1.16,14.78H220.62V354.94c-10.78,13.2-23.79,19.35-39.53,19.92s-29.07-4.25-40.16-16.3c-1.65,5,0,9.67-1.25,14.35H106.47c-1.11-1.85-.63-3.73-.64-5.52,0-16.33,0-32.66-.06-49,0-5.68-.72-11.28-4.65-15.63-8.45-1.24-13.52,3.36-13.57,12.3-.09,17.33,0,34.66,0,52v5.8H54c-1.29-1.7-.69-3.6-.69-5.35,0-17.83-.09-35.66,0-53.49,0-4.4-1-8.2-4.32-11.2-8-1.39-13.19,3.38-13.23,12.33-.07,17.33,0,34.66,0,52,0,1.8,0,3.59,0,5.74H1.39c-.72-33.41.8-67-1.39-100.39,8.06-1.94,31.28-1,33.76,1.13,15.2-5.75,29.35-4.82,41.91,6.36q34.47-25.45,60.79,12.57c3.08-1.12,3.07-5,6.18-6.34-2.54-4.57-2-9.55-3.85-14.12a11.68,11.68,0,0,0-.91,11.8c-11.78-4.47-16.35-15.78-25.51-22.58a83.81,83.81,0,0,0-9.65-29.09c-.59,5.88,1.07,11.79-2.66,17-2.61-.67-2.08-3.64-4.14-4.43a3,3,0,0,0-3,2c-6.81-3.75-6-13.55-14.78-17-1.7-2.89-1.91-7.46-2.94-11.79s-1-9-5.18-11.81c0-5.38,3.25-10.2,2.28-15.15-2-1.67-2.38,1-3.94.51.23-7.77,2.42-15.42,2.15-23.26-.09-2.82-.32-5.65-.21-8.46.09-2.33-1.76-2.84-3.17-3.74,12-18.54,13.35-22,9.13-24.55,6.39-8.73,10-20.21,23.41-21.67l-2.28-9.79c0-5.11,4.74-9.33,2-14.87,3.13-2.33,4-5.82,4.65-9.78-8.19-4.14-16.42-8.25-22-16.63L88,58.13c-2.75-4-8.54-5.74-8.14-10.13-.23-3.25,2.4-2.31,2.44-4.24-2.87-4.57-5.89-9.34-5.78-15.28-.07-1.81,2.54-.86,2.44-2.53V6.16ZM198.28,260.29c-.05.13-.16.27-.14.39a4.89,4.89,0,0,0,.25.74l-.61,1.62a8.18,8.18,0,0,0,0,5.92l6.14.54c.37-2,.72-3.77,1-5.53,0-.18-.38-.43-.58-.65l.88-4c-1.21-2.16-2.54-3.46-4.9-2.82C198.3,257,198,258.48,198.28,260.29Zm-36.94-1.06c.25-3.12-1.7-3.4-3.84-2.59-2.88,1.09-2.77,3.27-1.38,5.59-1.92,2.49-.48,4.81.16,7.47l6.58-.92C162.54,265.33,164.06,262,161.34,259.23Zm45.75-154c-3.5.19-8.11,5.09-9.52,10.19,1.29,1.93,3.32,3,5.32,4.16,1.08,1.09,2.27,1.82,4.14,1.06,1-4.85,3.39-9.54,3.15-14.94Zm-49,13.11c3.56-.29,4-2.66,3.88-5.57-1.85-1.92-3.11-4.27-5.49-5.56-1.8-4-4.48-1.44-7.22-1.26,1.27,5.47,2.16,10.6,4.87,15.21C156,120.57,157.65,120.29,158.09,118.31ZM248.2,82.17c.95-3.18-2.17-2.41-3-3.55-4.5,1.26-7.3,4.73-11.15,6.46-1.15.52-2.71,1.69-.92,3.38l1.2,5.59c5.63-.24,16.08-3,20-5.34C252.12,86.57,251.79,83,248.2,82.17Zm-135.63.13c-4.32.59-5,4-6,7.66,6.8,1,13,4.16,19.84,4.28l1.67-6a2.18,2.18,0,0,0-.87-2.61l-11.87-7.33C114.35,79.6,111.28,79.09,112.56,82.3ZM128,100.18c.06-1.16.2-2.7-1.44-2.52a136.83,136.83,0,0,0-21.3,3.65c0,2,.44,2.92,1.79,3.24.69,6.37,5.77,8.62,10.11,11.43,4.78-4.15,9.72-7.46,13.44-12A7,7,0,0,0,128,100.18Zm126.23,4.15c1.31-1,1.18-2.13.23-3.53-6-1-12.11-2.07-18.23-3.05-1.4-.23-3-.71-3.57,1.4l-4.21,4.93L243,116C248.57,113.58,252,109.5,254.25,104.33Zm-118.63,1.76c-1.61-1.59-2.64-.43-3.61.8-2.95,3.71-5.87,7.44-8.55,10.84.51,2.83,1.89,2.59,3.44,1.93,6.71,3.86,13.87,3,21.17,2.56.18-5.68.24-10.74-2-15.84C142.44,107.38,139.06,106.3,135.62,106.09Zm89.74-.59c-3.75,1.48-7.71,1.11-11.91,1.15l-1.3,15.77c7.67-.11,14.94,1.41,21.48-3.06,1.77,1.46,2.59.62,3-1.31-.93-1.48-1.6-3.32-2.89-4.43C230.81,111.07,229.84,106.43,225.36,105.5ZM186.21,122.3A31.07,31.07,0,0,0,187.52,108c-.61-5.18-3.79-8-8.6-7.78-4.09.15-7.39,3.56-7.74,8.28s-.18,9.66,1.68,14.26c1.12,5.13,4.49,8.76,8.2,12.71C182.58,130.7,186.39,127.32,186.21,122.3Zm175.16,212a48,48,0,0,1-1.31-13.87c.55-17,13.44-29,29.61-28.36A46.15,46.15,0,0,1,406,295.72c3.15-3.26,2.74-7.45,4.12-10.89-3.59-3.16-7.86-3.53-11.89-4.07-13.37-1.77-26.37-.72-37.48,7.89-16,12.4-19.08,29-14.68,47.78,1.46,11,8.27,18.59,17.37,23.41,14.78,7.81,30.25,7,45.84.87.12-4-.88-7.56-1.81-11.43-3.6,1.14-6.69,2.39-9.9,3.08-9.76,2.09-18.94,1-27.09-5.37C366.23,343.61,363.84,339,361.36,334.31Zm-130.89-2.14c-.55,10.23-.19,20.45.12,31,5.13-.07,9.71.49,14.8-.44.28-10.65,1.41-21.17.09-31.74V244.68h-15Zm-11.43,2c3.18-17.79,1.29-34-14-46.08-2.07,1.38-1.26,4.46-4.17,5.39-2.81-2.77-2-7.48-5-10.52-2.36,2.72-.42,6-1.82,9.09a35.73,35.73,0,0,1-11.6-11.77h-4.73c-2.75,4.91-6.07,9.05-11.46,11l.09.12c-1.58-2.64.4-5.89-1.54-8.53-3.38,3-3.24,7.64-5.18,11.3-.43-.17-.87-.21-1-.42-1.11-1.95-2.16-3.93-3.22-5.9-16.57,12.63-18.82,29.54-14.94,48.33a8.43,8.43,0,0,0,.18,2.4c7.22,18.87,23.85,29,43.92,26.41C202,362.77,216.39,350.39,219,334.18Zm116,0a55.32,55.32,0,0,0,1.31-15.37c-.63-16.61-8-29.47-23.37-35.69-14.16-5.75-29-4.89-41.72,4.62-16.12,12-18.45,29-14.86,47.47.82,8.63,5.61,15.15,11.85,20.46,14.19,12.08,33.41,12.71,49.19,3.51C326.82,353.7,333.5,345.57,335,334.18Zm97.65-.84.26-11.62c1.5-3.53,1-7.13.41-10.74,2.69-11.91,12.48-19.65,23.38-18.5,10.27,1.09,16.46,9.33,16.68,22.23.1,5.8.13,11.6.2,17.4-.74,10.23-.16,20.42,0,31,5.44,0,10.16.57,15.38-.4-.23-10.45.74-20.52-.17-30.62.07-6.8.29-13.61.17-20.41-.32-18.69-11.75-31.15-28.59-31.59-10.92-.28-19.41,4.25-26.18,12.51-.15-1.81-.43-3.61-.44-5.42,0-12.75,0-25.49-.07-38.24,0-1.65,1-3.69-1.11-4.94-4.88-1-9.74-.51-14.68-.26V333c-1.1,9.88-.13,19.73-.19,30,5.32.24,10,.54,15.24-.3C432.68,352.68,434.22,343,432.67,333.35ZM78.6,310a53.07,53.07,0,0,1,1.57-5.72c4.59-11.66,19.16-15.66,28.18-7.8,4.75,4.14,5.82,9.75,6.37,15.59-.57,16.86.1,33.67,1,51,5,.18,9.54.52,14.37-.18-.12-10.24.88-20-.11-29.71,0-9.64.93-19.28-.61-28.9C126.52,286.67,112.42,277,95,280.74c-8.92,1.91-14.91,7.85-20.24,14.85C69.54,285.6,62,280,50.57,280c-10.94,0-19.15,4.82-25.58,13.9-1.89-4.39-.37-8.6-2.1-12.09H10.29c1.17,17.67.4,35.08.93,52.48-.73,9.53-.23,19,.17,28.73,5.14.12,9.69.6,14.51-.34.09-9.8.69-19.2,0-28.61.06-6.33.2-12.66.17-19a23.47,23.47,0,0,1,2.21-10.66c5-10,17.77-17.11,28.4-7.95,4.38,3.77,5.87,9.19,6.27,14.66.53,7.3.41,14.65.57,22-.95,9.89-.05,19.73-.08,29.78,5.09.38,9.47.68,14.43-.26C78.72,345,79.49,327.54,78.6,310ZM138.39,63.15c-5.41-5-9.26-11.06-12.5-17.65C117.79,29,105.44,16.25,90.26,6.18,88,4.71,85.51,2.62,82.34,3.27c-.62,4.87,3,7.72,4.65,11.6l-4.41.79c1.14,3.72,4.79,4.11,6.95,6-1.09,3.37-4.12,3.43-6.63,4,2.69,4.79,7.87,5.56,11.54,8.32-1.24,1.94-3.3,1.92-4.72,3.09,3.28,3.31,7.54,2.54,11.7,3.64-3.33,3-7,3.48-10.8,4.89,3.94,2.42,7.91,2.58,12.22,3.34-2.4,3.38-6.42,2.34-8.79,4.44,3.65,4.91,8.94,3.63,14.53,4-2.8,2-5,3.33-6.4,6.26,5.72-1.09,11-2.18,16.4-.18-.71,1.73-2.25,2.75-2.21,4.67,6.15-1,12.17-1.29,17.82.73.92,2.42-.92,3-1.92,4.09,4.9,1.19,9.9,2,13.52,5.89-.82,1.25-3.13.53-3.64,2.58l10.29,2.45c-.51,1.95-3.24,2-2.65,4.29,4.06,0,8.21-.2,12,1.51,0,1.66-3,1.15-2.41,3.12a33.08,33.08,0,0,1,5.87,1.37,30.93,30.93,0,0,1,4.85,3.17c7.69-1.91,11.28-1.91,20.51,0,2.64-3.3,6.55-4.3,10.72-4.4-.32-2.2-3-1.35-2.92-3.26,3.92-1.94,8.28-1.29,12.44-1.61-.23-2.25-3.12-2.05-2.58-4.46L217,81.85a1.39,1.39,0,0,0,2.1-.69c-.2-.78-.79-1.09-1.68-1l-3.18-1.25c3.9-3.48,8.56-4.9,13.52-5.9-1-1.63-3.38-1.17-4-3.37,6.78-2.91,13.79-2.53,21.23-1.32l-3.22-5c5.36-1.48,10.32-1,15.5.22-.79-3.34-3.21-4.35-4.91-6.15,5-.67,10.56,1.21,14-4.24-3-1.69-6.65-.8-8.57-4.3,4.26-.6,8.13-1,11.87-3.25-3.39-1.63-7.43-1.34-10.09-4.94,4.17-.94,8.29-.71,11.4-3.66-1.64-1.2-4.15-.67-5-3.29,3.82-2.44,8.92-3.31,11.25-8-2.63-.92-6.05-.47-6.18-4.48,2.42-1.64,5.86-1.74,6.27-5.35-1-1.16-3,.11-4.24-2,3.49-2.63,4.76-6.46,4.76-11.33-2.24,1-4.1,1.67-5.85,2.57-7.72,4-14,9.72-20,16-6.88,7.21-13.19,14.83-17.4,23.94a58.36,58.36,0,0,1-13.45,18.84c-1.3-2.89-3.61-1.16-5.33-1.38-6.32,5.41-8.79,5.4-13.5-.09-2.49,2.25-6,1.89-8.57,3.41A31.61,31.61,0,0,1,186,63.23a12.4,12.4,0,0,0-10.62-.36c-6.33,2.86-12.26,3.56-18.11-.49-4,5-7.54,4.71-13.54.78Zm-13.82,61.72c-.32-1.49-1.34-1.52-2.53-1.21l-3.61-.61a9.17,9.17,0,0,0-5.16-1.76c-2.84-.9-5.62-2-8.52-2.65-7.72-1.65-11.87.29-15.55,7.17-3,5.66-4.83,11.83-7.93,17.54a40,40,0,0,0-4.74,25.44,28.21,28.21,0,0,1-1.33,13.68c-.09.26.11.62.22,1.14l3.2.16v3.16c-1.78.82-1.19,2.28-1,3.63l-.48,4.77c-1.4,2.09-1.58,4.47-2,6.7,1.86,1.17,3.12-.45,5.29-.16,3.89,7.51,6.16,15.68,4.87,24.57,2.19.34,3.14-2,5.32-1.22l2.2,4.71c3.15-6.11,2.36-11.7,1.17-17.17-2.36-.84-3.18,2.73-5.27,1-.31-4.69,4.59-8.27,2.94-13.1-1.27-1.61-4.06,3.19-4.4-1.29a15.6,15.6,0,0,0,3.65-12.5c-1.73-.61-3.33,1.73-5.17.21.26-2.44,2.58-3.62,3.7-5.57,2.91-1.78,3.41-5.39,5.73-7.3a6.83,6.83,0,0,0-.58-4.49l8-15.26c4.73-.73,5.38,2.18,4.63,5.41A62.15,62.15,0,0,0,105.83,174a5.57,5.57,0,0,0-4.49,1c-.86,15.48,3.16,30.45,6.21,45.23,6.72,7.24,8.86,17.07,15.26,24.37l5.67,2.48v-.66h91.25l.8-11.87h23.6c2.48-7.09,9.1-12.11,9.73-19.37.73-8.3,4.07-16,4.26-24.28.13-5.71,2.94-11.29,1.19-16.9a7.31,7.31,0,0,0-4.67-1,41.79,41.79,0,0,0-2.42-15.16c1.26-1.09,1.32-3,3.62-3.78,4.75,1.87,3.6,8.06,7.13,10.92-.35,6,2.36,10.54,6.54,14.45,1.77,2.17,2.69,5,5.07,6.69l-.33,1.41a3.79,3.79,0,0,1-3-.57c-.76-1-1.63-.67-2.68-.15.07,1.68-1.2,3.67,1.23,4.87a4.52,4.52,0,0,0,.22.89c-.69,3.33,2.53,5.48,2.78,8.59-1.64.63-2.7-1.73-4.4-.48-1.46,5.11,2.94,9.09,3.24,14.34-2-1-3.17-2.79-5.44-3.07.31,5.78-1.7,11.5,1,17.17,1.59-1.29,1.42-3.46,4.28-4.38.45-.09,1.36,2.29,3.38.87A47.39,47.39,0,0,1,279.58,202c2.17-.89,3.68,1.55,5.17-.16.38-3.83-2.61-6.78-2.5-10.5l-.26-5.85.36-2.05c.83-.37,2.21-.3,1.78-1.78-1.51-5.19-.83-10.45-.41-15.67.5-6.41.14-12.87-3-18.39-3.84-6.83-6.32-14.13-9.29-21.28-2.47-6-7.48-8.89-13.8-8.09-4.15.53-8,2.1-11.83,3.54l.36,3.52c-.57.08-1,.24-.36.84l.92-.2c1.94.34,3.33-2.09,5.54-1.27-3.33,4.32-14.52,5.74-22.3,3,5.23-1,11.07-.32,16.32-5.65-17.21,3.95-33.26,7.93-49.17-.58-4.17,10.37-10,19.29-17,28.68-5.42-9.93-12.32-18.33-17.41-28.66-6.94,4.36-14.24,5-21.8,4.91C135.43,126.29,130.05,125.05,124.56,124.87ZM408,308.1c-6-4.21-12.12-6.43-19.06-6.24-10.75.3-16.9,5.24-18.88,16.07-1.55,8.47.35,19.79,10.6,23.91,9.76,3.92,18.5.51,27.17-3.72.07-.79.17-1.44.17-2.09Q408,322,408,308.1ZM226.7,89c-1.76-.83-3.27-1.5-5.07-.36,0,1.6,1.48,3,.76,5.34a10.67,10.67,0,0,1-2.91,4.41c-3.74,1.91-6.41,0-9.12.92a9.47,9.47,0,0,0,13.36,1.73C227.62,98.13,228.68,94.17,226.7,89Zm-93.1.12c-1.67,7.49.47,11.93,6.39,13.69,4,1.19,7.53-.38,9-4.34a9.65,9.65,0,0,1-7.31.51c-4.39-2.75-3.71-6.68-3.31-10.34A4.68,4.68,0,0,0,133.6,89.16Zm63.54,185.58c.53,3.92,2,7.07,4.91,10.95.15-4.8,2.71-7.68,2.3-11.28C201.9,273.74,199.7,273.11,197.14,274.74Zm-41.7,0c1,3.64,1.63,7,4.16,10.3.86-4,3.7-6.72,3-10.51C160.16,273.1,158,273.75,155.44,274.72Zm18.13,1.14c-2.24-.73-4.09-.9-6.11.32L169.1,285C170.54,282,174.33,280.17,173.56,275.86Zm41.43-5.5c1-2.84,2.53-5.78-1-8.1a4,4,0,0,0-3.37,2.18c-.1,2-.55,4.14.42,6.13A3.88,3.88,0,0,0,215,270.36Zm-65,.27c-.39-3.43,1.29-7.34-3.84-8.41-3.38,2.42-1.52,5.34-1.42,7.89C146.37,271.26,147.83,271.06,150,270.63Zm42.65,5c-2.35-.34-3.95-.75-5.58.29-.74,3.81,1.48,6.2,4.23,9.16Zm-20.55-6.37c1.3-6.39,0-8.36-4.56-6.85-.95,2.41-.19,4.76.31,7.1A4.29,4.29,0,0,0,172.09,269.31Zm20.76-6.56c-1.87.29-3.6.39-5.13,1.57a8.09,8.09,0,0,0,.1,5.23c1.59.44,3.11.78,4.85-.5C192.93,267.16,193.49,265.16,192.85,262.75ZM149.18,286c-.86-3.46,1.15-6.21,1.06-9.34a7,7,0,0,0-5.75.35C145.67,280,144.55,284,149.18,286ZM234.57,74.38c-3.86,2-7.47,4.18-10,8.38C229.21,83.34,233.65,79.8,234.57,74.38Zm-25,202.06c.52,3.4,2.42,5.81,2.2,9.57,3.17-3.11,3.52-6.16,3.51-9.57ZM135.79,82.61c-2.65-4.32-6.58-5.9-10.11-8.64A8.73,8.73,0,0,0,135.79,82.61ZM127,262.55c.95,4.39,2.1,6.92,4.31,9.33,2.29-1.59,2.34-3.68,2.53-6A14.06,14.06,0,0,1,127,262.55Zm36.36-154.7c2.22-3.25-.36-3.83-1.81-4.88s-3.21-2.77-5.47-.59C158.09,105,160.57,106.41,163.4,107.85Zm32.58.39c3.59-2.07,7.08-2.54,7.52-7.18C199.65,102,196.49,102.86,196,108.24ZM140.16,90.06c.61,1.76,1.31,3,3.07,3a3.63,3.63,0,0,0,2-3.22C143.63,87.9,142,87.39,140.16,90.06ZM215,89.73c.15,2.25,1.12,3.36,3.16,3.28,1.31-1.34,1.91-2.57.74-4.29C217.6,88,216.33,88,215,89.73Z"/><path class="cls-1" d="M222,131a42.73,42.73,0,0,0-14.4,2.92c7.34,2.26,14.45-1.37,21.53,2-14.28,1-28,1.13-38.14,12.84-.24-7.92,7.55-16.83,16-18.92,1.14.29,2.17.31,2.55-1.13a61.64,61.64,0,0,1,12.43-.12Z"/><path class="cls-1" d="M151.12,133.46A39.4,39.4,0,0,0,138.48,131v-2.4c9.31-.72,18.16-.14,25.14,7.39a21.68,21.68,0,0,1,5.21,10.5c-11-8.58-23.75-10.34-37.6-10.34,6.68-3.08,12.84-2,19-1,1.07,1.86,3.16.78,4.6,1.59a1.58,1.58,0,0,0,2.29,0l-1.59-.83C154.69,134,153.06,133.47,151.12,133.46Z"/><path class="cls-1" d="M120.54,175.36c-2-3.11-5.63-4.1-6.61-8,5.52,1.82,10.26,5,16.12,5.31-.19,2-1.81,2.58-2.7,3.61-5.76-1.22-13,5.9-17.28-3.72C113.75,172.82,116.4,175.72,120.54,175.36Z"/><path class="cls-1" d="M181,173.87c7.46,2.22,14.12,1.67,21,.65C196,181.82,186.85,181.83,181,173.87Z"/><path class="cls-1" d="M134.65,174.51c6.16,1.76,12.47.65,18.87.93C147.63,182,142.71,181.87,134.65,174.51Z"/><path class="cls-1" d="M178.51,174c-3.74,7.2-12.37,7.76-19.86,1.57C165.3,174.64,171.89,176.52,178.51,174Z"/><path class="cls-1" d="M205.86,175.26c7-.08,13.06,1.09,19.17-1.12C220.8,181.72,213.81,182.31,205.86,175.26Z"/><path class="cls-1" d="M205.66,169.63c7.35.15,14.69.94,21.87-1.41C220.55,173.23,213.27,174,205.66,169.63Z"/><path class="cls-1" d="M208.08,194.15c-3.68-1.09-7,1.35-10.66,1-1.36-1.29-3.49-1.82-4.27-4.71l20.38,1A9.75,9.75,0,0,1,208.08,194.15Z"/><path class="cls-1" d="M182,182.13c7.47,3,14.1,1.85,21.15.74C196.81,189.18,185.11,189.3,182,182.13Z"/><path class="cls-1" d="M163.21,194.29c-2.77-1.13-5.14,1.25-7.83.87-2.22-1.82-5.88-.45-8.2-4.31,6.59,0,12.68.77,19.07-1.07C165.89,192.26,165.75,194.06,163.21,194.29Z"/><path class="cls-1" d="M232.16,165.85a39.78,39.78,0,0,0,16.41-6.91C247.85,165.06,240.31,168.3,232.16,165.85Z"/><path class="cls-1" d="M118.93,188.4c6.62.92,12.63,2.16,19.38,1.68C131.44,194.56,124.9,194,118.93,188.4Z"/><path class="cls-1" d="M114.05,123.28a1.1,1.1,0,0,0,1.66.14c2.56,3.47,7.08,2.51,10.27,4.76-6.09-.4-12.63,2.16-17.78-3.61L113,126c.65.4,1.31.82,1.52-.41Z"/><path class="cls-1" d="M233.91,139.43c-4.24,4.26-12.32,4.61-19.73,1.29C220.87,139.44,227.07,141.56,233.91,139.43Z"/><path class="cls-1" d="M155.93,169.39c-8,4.21-14.62,4.31-21.2,0Z"/><path class="cls-1" d="M225.24,183.39c1.59-.11,3.25-1.36,4.73.28v0c-7.19,5.38-12.59,5.68-19.47.43h12.57C223.95,184.31,224.78,184.44,225.24,183.39Z"/><path class="cls-1" d="M238.13,175.35c-2.66-.49-6,1.31-8.54-3.27,5.58.91,9.42-2.58,14.55-2.88-1.32,3.19-4.26,4.22-6.14,6.26Z"/><path class="cls-1" d="M177.11,182.58c-.86,6.3-7.09,6.91-18.39,1.91C165.28,183.49,171.32,185,177.11,182.58Z"/><path class="cls-1" d="M111.88,160l13.25,5.69C121.47,168.36,115.25,166.07,111.88,160Z"/><path class="cls-1" d="M225,197.57c-4.45,3-9.39,2.74-14.62,2.21l-.64-2.8Z"/><path class="cls-1" d="M106.55,134.72c4.14,2.69,8.15,2.47,12.21,3.53C112.72,141.85,109.45,141,106.55,134.72Z"/><path class="cls-1" d="M183,169.43c5.64-.35,10.25,2,16.13-.41C194.51,173.92,190.62,173.86,183,169.43Z"/><path class="cls-1" d="M149.68,184.37c-6.61,4.69-11.37,4.66-17.57,0Z"/><path class="cls-1" d="M241.18,138c4.39-.43,8.1-.59,11.58-3C251.1,141,247.81,141.9,241.18,138Z"/><path class="cls-1" d="M150.12,197.44c-3,5.3-7.66,1.73-11.54,2.07a3.38,3.38,0,0,1-3.1-1.93Z"/><path class="cls-1" d="M238,175.45c4,.79,7.22-1.49,10.82-2.84,1.47,3.4-1.83,4.07-3.58,5-2.74,1.41-5.42.65-7.11-2.25Z"/><path class="cls-1" d="M240.22,189.32c-4.21,4.42-11.2,5-18.68.83,6.51.4,12-.72,17.49-1.23Z"/><path class="cls-1" d="M143.79,140.5c-5.74,3.75-9.86,3.72-17-.06C132.52,141.65,138.21,141.2,143.79,140.5Z"/><path class="cls-1" d="M126.74,185.13c-4.17,1.72-7.87,1.85-10.74-2.66C120.34,181.43,123.25,184.63,126.74,185.13Z"/><path class="cls-1" d="M233.06,184.93c4.05-1,7.16-1.73,9.94-4.39C242.77,186.2,240,187.42,233.06,184.93Z"/><path class="cls-1" d="M165.11,146.51c-4.83,2.42-8.51,2.5-13.26-1Z"/><path class="cls-1" d="M205.54,145.93c-4,3-4.75,3-9.51.49Z"/><path class="cls-1" d="M230,183.67l-.53-.34.54.31Z"/><path class="cls-1" d="M206.74,145.32c.47.33.47.66,0,1C206.27,146,206.27,145.65,206.74,145.32Z"/><path class="cls-1" d="M167.85,77.41c3.49.3,7,.51,9.9-2C174.15,81.38,171.14,82,167.85,77.41Z"/><path class="cls-1" d="M193.35,75.54l-4.15-2.45,13,1C199.52,76.33,196.38,75.61,193.35,75.54Z"/><path class="cls-1" d="M159.25,75.14c3-3.28,6.75-.87,10.93-2.15-2.86,2.82-5.71,1.92-8.1,2.67Z"/><path class="cls-1" d="M319.59,333c-3.08,7.57-6.64,14.36-14.49,18.68-10.21,5.63-23.37.43-28.75-8.8-2-3.38-3.4-7.07-5.07-10.61-1-9.49-1.38-18.91,3.45-27.65,5.37-9.71,14-14.38,24.09-13.16,9.09,1.09,17.53,8.59,20.11,18.37A48.68,48.68,0,0,1,319.59,333Zm-39.18-11.21c.07,5.56.75,10.15,2.93,14.35,5,9.68,15.52,9.94,21.4,4.17,7.57-7.43,7.73-25,2.31-33s-15.32-8.32-21.84-.94C281.09,311,281,316.95,280.42,321.84Z"/><path class="cls-1" d="M203.3,334.28c-3.28,6.91-6.88,13.21-14.05,17.35-10.47,6-24.19.24-29.46-9.39-1.11-2-1.81-4.31-3.59-5.94-2.48-10.73-2.83-21.27,2.42-31.42,4.72-9.12,12.1-13.81,22.37-13.47,9.37.31,17.67,6.83,21,16.3,2.62,7.34,2.9,14.93,2,22.61-.92.55-.83,1.34-.52,2.18Zm-8.41-9.72a32.67,32.67,0,0,0-3-15.54c-4.06-9-15.57-10.58-22.13-3.15s-7.34,23.9-1.64,31.86c6.35,8.87,16,8,21.15,1.86C193.44,334.54,194.46,328.68,194.9,324.56Z"/><path class="cls-1" d="M166.21,291.29l-.34.69c-.28-.55-.48-1,.43-.57Z"/><path class="cls-1" d="M166.31,67.1c-4.36,4.09-8.25,5.38-14.11,1.77Z"/><path class="cls-1" d="M207.67,68.43c-4.56,3.75-7.78,2.89-12,.14C200.11,67.63,203.34,68.32,207.67,68.43Z"/></g></g></g></svg>
